<svg width="290" height="265" viewBox="0 0 290 265" fill="none" xmlns="http://www.w3.org/2000/svg">
<path d="M4.70306 242.646C5.95985 242.467 8.34777 240.911 8.34777 240.911C8.34777 240.911 6.8456 239.648 6.74386 239.582C5.54691 238.798 2.71013 238.008 1.45334 239.037C1.25025 239.214 1.08681 239.432 0.973719 239.677C0.860625 239.922 0.800416 240.187 0.797027 240.457C0.793637 240.726 0.847144 240.993 0.954051 241.241C1.06096 241.488 1.21886 241.71 1.41743 241.892C2.21938 242.7 3.63777 242.802 4.70306 242.646Z" fill="#263238"/>
<path d="M27.9525 230.808C27.9525 230.808 27.3959 228.923 27.354 228.809C26.7555 227.486 24.8584 225.272 23.2425 225.44C22.9757 225.476 22.7194 225.567 22.4903 225.709C22.2613 225.85 22.0644 226.038 21.9126 226.26C21.7609 226.483 21.6575 226.734 21.6092 226.999C21.561 227.264 21.5689 227.536 21.6326 227.798C21.866 228.923 22.9851 229.785 23.9606 230.245C25.1157 230.784 27.9525 230.808 27.9525 230.808Z" fill="#263238"/>
<path d="M31.0063 262.551C31.5628 263.239 32.0656 263.892 32.5204 264.49H33.6635C33.065 263.754 32.4187 262.916 31.6586 262.019C31.2217 261.492 30.7429 260.935 30.2402 260.373C30.6972 259.818 31.1209 259.236 31.509 258.631C32.6159 258.864 33.7496 258.945 34.8784 258.871C34.9562 259.541 35.028 260.193 35.0819 260.81C35.2135 262.204 35.2973 263.443 35.3452 264.49H36.2728C36.201 263.425 36.0873 262.15 35.9257 260.72C35.8479 260.044 35.7522 259.313 35.6444 258.571C35.9078 258.488 38.0383 257.823 38.8283 257.129C39.6183 256.435 40.2766 255.495 40.1988 254.496C40.188 254.259 40.1277 254.028 40.0218 253.816C39.9159 253.604 39.7668 253.417 39.584 253.266C39.4013 253.116 39.1891 253.005 38.961 252.942C38.7329 252.878 38.494 252.863 38.2598 252.898C36.8534 253.149 35.7881 255.489 35.6145 256.752C35.6145 256.824 35.6145 257.644 35.6145 258.164C35.5726 257.859 35.5307 257.566 35.4829 257.249C35.3871 256.65 35.2734 256.016 35.1597 255.352C35.0879 255.034 35.022 254.717 34.9502 254.394C34.8784 254.071 34.7826 253.736 34.6989 253.406C34.4894 252.64 34.238 251.874 33.9687 251.108C34.5073 251.025 36.4285 250.701 37.2304 250.181C38.0324 249.66 38.9061 248.792 38.978 247.787C39.0031 247.551 38.9785 247.313 38.9058 247.088C38.8332 246.862 38.714 246.655 38.5561 246.478C38.3982 246.302 38.205 246.16 37.989 246.063C37.7731 245.966 37.5391 245.915 37.3022 245.914C35.8779 245.955 34.4714 248.104 34.1124 249.325C34.1124 249.403 33.9328 250.306 33.855 250.803C33.6874 250.348 33.5258 249.887 33.3403 249.433C32.8137 248.11 32.2391 246.787 31.6706 245.465C31.497 245.058 31.3294 244.651 31.1619 244.268C31.3534 244.268 33.6396 243.903 34.5433 243.328C35.3392 242.807 36.213 241.934 36.2908 240.934C36.3169 240.699 36.293 240.461 36.2207 240.235C36.1483 240.01 36.0292 239.802 35.871 239.626C35.7128 239.449 35.5191 239.308 35.3027 239.212C35.0862 239.116 34.8519 239.066 34.6151 239.067C33.1907 239.103 31.7783 241.251 31.4192 242.472C31.4192 242.568 31.1679 243.867 31.126 244.202C30.7549 243.31 30.3898 242.407 30.0667 241.521C29.6184 240.316 29.2525 239.082 28.9715 237.828C29.0612 237.828 31.4491 237.475 32.3708 236.877C33.1727 236.362 34.0465 235.488 34.1183 234.483C34.1444 234.248 34.1206 234.009 34.0487 233.784C33.9767 233.559 33.8582 233.351 33.7007 233.174C33.5433 232.998 33.3504 232.856 33.1347 232.759C32.919 232.661 32.6852 232.611 32.4486 232.609C31.0242 232.651 29.6118 234.8 29.2527 236.021C29.2527 236.099 29.0552 237.092 28.9834 237.565H28.9056C28.6546 236.295 28.5164 235.005 28.4927 233.711C28.4927 232.999 28.4927 232.316 28.4927 231.652C28.9475 231.652 31.0123 231.532 31.898 231.089C32.7837 230.646 33.6934 229.892 33.8969 228.899C33.9498 228.668 33.9533 228.429 33.907 228.197C33.8607 227.964 33.7657 227.745 33.6283 227.552C33.4909 227.359 33.3142 227.197 33.1098 227.078C32.9054 226.958 32.678 226.883 32.4426 226.858C31.0182 226.738 29.3844 228.719 28.8937 229.892C28.8937 229.958 28.6662 230.635 28.5286 231.131C28.5286 230.832 28.5645 230.533 28.5884 230.24C28.6782 229.162 28.8278 228.187 28.9655 227.319C29.0493 226.828 29.133 226.385 29.2168 225.972C29.6477 225.727 31.3893 224.698 31.9638 223.914C32.5384 223.13 33.0171 222.011 32.7299 221.047C32.6692 220.818 32.5609 220.604 32.4121 220.419C32.2632 220.235 32.0771 220.084 31.8659 219.976C31.6548 219.868 31.4232 219.806 31.1864 219.793C30.9496 219.781 30.7129 219.819 30.4916 219.904C29.1749 220.454 28.6363 222.968 28.744 224.237C28.744 224.345 29.0911 226.032 29.1151 226.032C29.0313 226.433 28.9415 226.858 28.8518 227.325C28.6902 228.187 28.5226 229.162 28.4089 230.24C28.2706 231.399 28.2026 232.567 28.2054 233.735C28.2031 235.04 28.3132 236.344 28.5346 237.631C28.5372 237.645 28.5372 237.659 28.5346 237.673C28.3431 237.308 27.7625 236.29 27.7087 236.218C26.9546 235.189 24.9018 233.645 23.5493 234.094C23.3261 234.174 23.1224 234.3 22.9516 234.464C22.7807 234.629 22.6465 234.827 22.5578 235.047C22.4691 235.267 22.4278 235.503 22.4367 235.74C22.4457 235.977 22.5046 236.209 22.6097 236.422C23.0166 237.343 24.1418 237.87 25.0634 238.086C26.1107 238.325 28.3909 237.864 28.5705 237.822C28.8351 239.126 29.1829 240.411 29.6118 241.67C29.8632 242.401 30.1325 243.137 30.4198 243.861C30.2402 243.55 30.0786 243.262 30.0487 243.262C29.3006 242.239 27.2419 240.695 25.8594 241.144C25.6497 241.23 25.4595 241.357 25.3001 241.518C25.1407 241.679 25.0154 241.871 24.9316 242.081C24.8478 242.292 24.8073 242.517 24.8125 242.744C24.8176 242.97 24.8684 243.193 24.9617 243.4C25.3686 244.316 26.4938 244.842 27.4214 245.058C28.349 245.273 30.312 244.92 30.8267 244.818C30.9345 245.1 31.0422 245.375 31.1559 245.656C31.6945 246.991 32.2391 248.319 32.7359 249.642C32.9094 250.109 33.059 250.576 33.2206 251.037L32.8974 250.492C32.1494 249.463 30.0906 247.924 28.738 248.373C28.5151 248.453 28.3115 248.578 28.1407 248.742C27.9698 248.906 27.8356 249.104 27.7468 249.323C27.6581 249.543 27.6168 249.778 27.6257 250.015C27.6346 250.251 27.6934 250.483 27.7984 250.695C28.2054 251.617 29.3305 252.144 30.2582 252.359C31.1858 252.575 32.9573 252.251 33.5677 252.138C33.7114 252.617 33.861 253.095 33.9807 253.568C34.0525 253.897 34.1483 254.202 34.2021 254.532C34.256 254.861 34.3278 255.178 34.3936 255.501C34.4894 256.1 34.5911 256.758 34.6689 257.362C34.7288 257.781 34.7707 258.188 34.8245 258.559C34.651 258.093 34.3039 257.189 34.268 257.117C33.7172 256.135 32.9239 255.311 31.9638 254.723C31.9051 254.614 31.8371 254.51 31.7603 254.412C31.6214 254.22 31.4438 254.06 31.2389 253.942C31.034 253.823 30.8065 253.749 30.5712 253.724C30.3358 253.7 30.0979 253.724 29.8728 253.798C29.6478 253.871 29.4406 253.99 29.2647 254.149C28.2353 255.136 28.6662 257.674 29.1929 258.817C29.1929 258.889 29.6597 259.583 29.941 260.014L29.3425 259.325C28.9176 258.865 28.4867 258.41 28.0199 257.925L27.3556 257.291C27.1222 257.057 26.8529 256.836 26.6015 256.602C26.003 256.082 25.3686 255.585 24.7223 255.094C25.1292 254.729 26.5536 253.395 26.9366 252.521C27.3197 251.647 27.5351 250.438 27.0683 249.558C26.9606 249.352 26.811 249.17 26.629 249.024C26.447 248.878 26.2367 248.772 26.0114 248.713C25.7861 248.653 25.5508 248.641 25.3206 248.677C25.0904 248.714 24.8703 248.798 24.6744 248.924C23.4775 249.738 23.5134 252.311 23.8904 253.526C23.8904 253.604 24.2794 254.448 24.4889 254.903C24.0999 254.615 23.7109 254.304 23.2919 254.041C22.095 253.227 20.898 252.443 19.7011 251.647L18.5999 250.911C18.7495 250.785 20.4731 249.241 20.904 248.26C21.287 247.392 21.5025 246.171 21.0357 245.297C20.928 245.09 20.7784 244.908 20.5964 244.763C20.4144 244.617 20.204 244.511 19.9788 244.452C19.7535 244.392 19.5182 244.38 19.288 244.416C19.0578 244.453 18.8377 244.537 18.6418 244.663C17.4448 245.477 17.4807 248.05 17.8578 249.265C17.8578 249.355 18.4144 250.57 18.564 250.869C17.762 250.33 16.9601 249.786 16.1701 249.217C15.1319 248.459 14.1462 247.631 13.2196 246.739C13.2854 246.68 15.0928 245.076 15.5357 244.076C15.9187 243.202 16.1342 241.988 15.6674 241.084C15.5587 240.874 15.4072 240.69 15.2227 240.542C15.0382 240.395 14.8249 240.288 14.5964 240.228C14.368 240.168 14.1295 240.157 13.8965 240.195C13.6634 240.233 13.441 240.32 13.2435 240.45C12.0466 241.269 12.0825 243.837 12.4595 245.058C12.4595 245.136 12.8844 246.057 13.0879 246.494L13.0221 246.542C12.112 245.619 11.2849 244.618 10.5504 243.55C10.1434 242.951 9.78434 242.389 9.44321 241.814C9.80828 241.551 11.478 240.324 11.9688 239.462C12.4595 238.6 12.8246 237.463 12.4296 236.535C12.3455 236.314 12.2156 236.114 12.0486 235.946C11.8816 235.779 11.6811 235.648 11.4602 235.564C11.2394 235.479 11.0032 235.442 10.767 235.454C10.5308 235.467 10.3 235.53 10.0896 235.638C8.83875 236.32 8.56345 238.876 8.80284 240.126C8.80284 240.192 9.02428 240.868 9.18587 241.359C9.03625 241.102 8.88064 240.833 8.743 240.581C8.22232 239.636 7.80937 238.738 7.4443 237.942C7.24681 237.487 7.07325 237.068 6.91166 236.679C7.13908 236.23 8.01884 234.417 8.06672 233.447C8.1146 232.478 7.89915 231.275 7.12113 230.629C6.94423 230.472 6.73621 230.354 6.51064 230.282C6.28508 230.211 6.04705 230.189 5.81209 230.216C5.57714 230.243 5.35055 230.319 5.14711 230.44C4.94367 230.56 4.76797 230.723 4.63147 230.916C3.8355 232.113 4.76912 234.507 5.55911 235.488C5.62494 235.578 6.84583 236.805 6.8578 236.781C7.00143 237.156 7.16302 237.555 7.34256 237.978C7.68968 238.786 8.08467 239.695 8.58739 240.653C9.11173 241.694 9.69727 242.703 10.3409 243.675C11.0569 244.77 11.8702 245.797 12.7707 246.745H12.8007C12.4356 246.548 11.3942 246.021 11.3105 245.991C10.1135 245.549 7.54605 245.393 6.66629 246.512C6.52543 246.702 6.4262 246.92 6.37504 247.151C6.32389 247.383 6.32195 247.622 6.36937 247.854C6.41678 248.086 6.51248 248.305 6.65025 248.498C6.78801 248.691 6.96476 248.852 7.16901 248.972C8.01884 249.516 9.24571 249.337 10.1315 249.002C11.1369 248.631 12.7827 246.985 12.9144 246.853C13.8517 247.797 14.8514 248.677 15.9067 249.486C16.5052 249.959 17.1456 250.42 17.786 250.875C17.4628 250.707 17.1875 250.564 17.1336 250.552C15.9367 250.109 13.3692 249.953 12.4894 251.072C12.3486 251.263 12.2494 251.481 12.1982 251.712C12.147 251.943 12.1451 252.182 12.1925 252.414C12.2399 252.646 12.3356 252.866 12.4734 253.058C12.6112 253.251 12.7879 253.412 12.9922 253.532C13.842 254.077 15.0689 253.897 15.9546 253.562C16.8404 253.227 18.2887 251.856 18.6657 251.485L19.4018 252C20.5988 252.814 21.7957 253.628 22.9209 254.454C23.3218 254.747 23.7049 255.052 24.1178 255.352C23.8306 255.208 23.5912 255.088 23.5193 255.076C22.3224 254.633 19.7609 254.478 18.8812 255.597C18.7391 255.787 18.6388 256.004 18.5866 256.235C18.5345 256.466 18.5318 256.706 18.5787 256.938C18.6256 257.17 18.7211 257.39 18.8588 257.583C18.9965 257.776 19.1734 257.937 19.3779 258.057C20.2277 258.601 21.4546 258.422 22.3703 258.087C23.2859 257.751 24.5607 256.513 25.0095 256.076C25.3926 256.399 25.7816 256.716 26.1407 257.045C26.386 257.273 26.6314 257.476 26.8588 257.722L27.5531 258.428C27.972 258.889 28.4089 259.367 28.8099 259.828C29.0911 260.145 29.3485 260.457 29.6178 260.768C29.2168 260.474 28.4209 259.912 28.355 259.87C27.2478 259.272 24.7642 258.709 23.6929 259.685C23.5237 259.851 23.3915 260.05 23.305 260.271C23.2184 260.492 23.1795 260.728 23.1908 260.965C23.2022 261.202 23.2634 261.434 23.3705 261.645C23.4777 261.857 23.6283 262.043 23.8126 262.192C24.5727 262.856 25.8115 262.868 26.7391 262.671C27.7625 262.455 29.5699 261.145 29.7973 260.977C30.2043 261.57 30.6232 262.066 31.0063 262.551Z" fill="#263238"/>
<path d="M264.352 243.484C263.095 243.304 260.707 241.748 260.707 241.748C260.707 241.748 262.209 240.486 262.317 240.42C263.514 239.642 266.351 238.846 267.601 239.875C267.805 240.052 267.969 240.27 268.083 240.515C268.196 240.76 268.257 241.026 268.261 241.296C268.265 241.566 268.212 241.834 268.106 242.082C267.999 242.33 267.842 242.553 267.643 242.736C266.853 243.538 265.447 243.616 264.352 243.484Z" fill="#263238"/>
<path d="M241.677 231.646C241.647 231.646 242.233 229.767 242.275 229.653C242.874 228.325 244.771 226.11 246.387 226.284C246.654 226.32 246.91 226.411 247.139 226.553C247.368 226.694 247.565 226.882 247.717 227.104C247.869 227.327 247.972 227.578 248.02 227.843C248.068 228.108 248.06 228.38 247.997 228.642C247.763 229.761 246.644 230.623 245.669 231.084C244.526 231.646 241.677 231.646 241.677 231.646Z" fill="#263238"/>
<path d="M239.056 262.551C238.5 263.24 237.997 263.892 237.542 264.49H236.399C236.997 263.754 237.644 262.916 238.404 262.019C238.841 261.492 239.326 260.935 239.822 260.373C239.365 259.818 238.942 259.236 238.553 258.631C237.447 258.864 236.313 258.945 235.184 258.871C235.106 259.541 235.034 260.193 234.981 260.81C234.849 262.204 234.771 263.443 234.717 264.49H233.79C233.867 263.425 233.975 262.15 234.137 260.72C234.215 260.044 234.31 259.314 234.418 258.571C234.155 258.488 232.024 257.823 231.234 257.129C230.444 256.435 229.792 255.495 229.87 254.496C229.88 254.259 229.939 254.027 230.045 253.815C230.15 253.603 230.3 253.415 230.482 253.264C230.665 253.113 230.878 253.003 231.107 252.94C231.335 252.877 231.574 252.862 231.809 252.898C233.209 253.149 234.28 255.489 234.448 256.752C234.448 256.824 234.448 257.644 234.478 258.165C234.52 257.859 234.562 257.566 234.61 257.249C234.705 256.65 234.819 256.016 234.939 255.352C235.005 255.034 235.076 254.717 235.142 254.394C235.208 254.071 235.316 253.736 235.399 253.407C235.609 252.641 235.86 251.875 236.13 251.109C235.585 251.025 233.664 250.702 232.862 250.181C232.06 249.66 231.192 248.792 231.114 247.787C231.089 247.551 231.114 247.313 231.187 247.088C231.259 246.862 231.378 246.655 231.536 246.478C231.694 246.302 231.887 246.16 232.103 246.063C232.319 245.966 232.553 245.915 232.79 245.914C234.215 245.956 235.627 248.104 235.98 249.325C235.98 249.403 236.166 250.307 236.243 250.803C236.405 250.348 236.573 249.888 236.752 249.433C237.279 248.11 237.853 246.788 238.422 245.465L238.936 244.268C238.739 244.268 236.453 243.903 235.555 243.328C234.753 242.808 233.879 241.934 233.802 240.934C233.776 240.699 233.801 240.461 233.874 240.236C233.946 240.011 234.066 239.804 234.224 239.628C234.382 239.452 234.575 239.311 234.791 239.214C235.007 239.118 235.241 239.068 235.477 239.067C236.902 239.103 238.314 241.252 238.673 242.473C238.673 242.568 238.925 243.867 238.966 244.202C239.343 243.31 239.709 242.407 240.032 241.521C240.475 240.315 240.839 239.082 241.121 237.828C241.031 237.828 238.643 237.475 237.722 236.877C236.92 236.362 236.046 235.488 235.974 234.483C235.949 234.247 235.973 234.009 236.046 233.784C236.119 233.558 236.238 233.351 236.396 233.174C236.554 232.998 236.747 232.856 236.963 232.759C237.179 232.662 237.413 232.611 237.65 232.61C239.074 232.652 240.481 234.8 240.84 236.021C240.84 236.099 241.037 237.092 241.109 237.565H241.193C241.445 236.295 241.581 235.005 241.6 233.711C241.6 232.999 241.6 232.316 241.57 231.652C241.121 231.652 239.056 231.532 238.164 231.09C237.273 230.647 236.369 229.893 236.166 228.899C236.115 228.668 236.113 228.429 236.16 228.197C236.208 227.965 236.303 227.746 236.441 227.553C236.579 227.361 236.755 227.2 236.96 227.08C237.164 226.96 237.391 226.885 237.626 226.858C239.044 226.739 240.684 228.72 241.175 229.893C241.175 229.958 241.396 230.635 241.534 231.131C241.534 230.832 241.498 230.533 241.474 230.24C241.384 229.162 241.241 228.187 241.097 227.319C241.019 226.828 240.929 226.385 240.852 225.973C240.415 225.727 238.679 224.698 238.105 223.914C237.53 223.13 237.045 222.011 237.339 221.047C237.398 220.818 237.506 220.604 237.654 220.42C237.803 220.235 237.988 220.084 238.199 219.976C238.41 219.868 238.641 219.806 238.877 219.794C239.114 219.781 239.35 219.819 239.571 219.904C240.888 220.455 241.426 222.968 241.324 224.237C241.324 224.345 240.971 226.032 240.947 226.032C241.037 226.433 241.127 226.858 241.217 227.325C241.372 228.187 241.54 229.162 241.654 230.24C241.792 231.4 241.86 232.567 241.857 233.735C241.865 235.041 241.755 236.345 241.528 237.631C241.528 237.631 241.528 237.661 241.528 237.673C241.725 237.308 242.3 236.29 242.354 236.218C243.108 235.189 245.161 233.645 246.543 234.094C246.765 234.175 246.967 234.303 247.137 234.467C247.307 234.632 247.441 234.83 247.529 235.05C247.618 235.269 247.659 235.504 247.651 235.741C247.643 235.977 247.586 236.209 247.483 236.422C247.07 237.344 245.951 237.87 245.023 238.086C243.976 238.325 241.701 237.864 241.516 237.822C241.257 239.127 240.909 240.413 240.475 241.671C240.223 242.401 239.954 243.137 239.673 243.861L240.038 243.263C240.792 242.239 242.845 240.695 244.227 241.144C244.45 241.224 244.654 241.35 244.825 241.515C244.996 241.679 245.13 241.878 245.219 242.097C245.307 242.317 245.348 242.553 245.34 242.79C245.331 243.027 245.272 243.259 245.167 243.472C244.76 244.388 243.635 244.914 242.713 245.13C241.791 245.345 239.822 244.992 239.308 244.89L238.972 245.728C238.434 247.063 237.889 248.391 237.398 249.714C237.225 250.181 237.069 250.648 236.914 251.109C237.069 250.833 237.207 250.6 237.231 250.564C237.985 249.535 240.038 247.996 241.42 248.445C241.643 248.525 241.847 248.65 242.018 248.814C242.188 248.978 242.323 249.176 242.411 249.395C242.5 249.615 242.541 249.85 242.533 250.087C242.524 250.323 242.465 250.555 242.36 250.767C241.953 251.689 240.828 252.216 239.906 252.431C238.984 252.647 237.201 252.323 236.59 252.21C236.447 252.688 236.297 253.167 236.178 253.64C236.106 253.969 236.01 254.274 235.956 254.604C235.902 254.933 235.83 255.25 235.771 255.573C235.675 256.172 235.573 256.83 235.489 257.434C235.435 257.853 235.388 258.26 235.34 258.631C235.507 258.165 235.854 257.261 235.89 257.189C236.441 256.207 237.234 255.383 238.194 254.795C238.253 254.686 238.321 254.582 238.398 254.484C238.537 254.292 238.714 254.132 238.919 254.014C239.124 253.895 239.352 253.821 239.587 253.796C239.822 253.771 240.06 253.796 240.285 253.87C240.51 253.943 240.718 254.062 240.893 254.221C241.923 255.208 241.492 257.746 240.971 258.889C240.935 258.96 240.499 259.655 240.217 260.086C240.421 259.858 240.618 259.631 240.816 259.397C241.235 258.937 241.666 258.482 242.132 257.997L242.833 257.309C243.066 257.075 243.335 256.854 243.593 256.62C244.191 256.1 244.819 255.603 245.466 255.112C245.059 254.747 243.67 253.413 243.257 252.539C242.845 251.665 242.629 250.456 243.12 249.576C243.228 249.365 243.379 249.179 243.564 249.031C243.749 248.882 243.963 248.774 244.193 248.714C244.422 248.655 244.662 248.644 244.895 248.683C245.129 248.722 245.352 248.811 245.55 248.942C246.717 249.756 246.705 252.329 246.328 253.544C246.328 253.622 245.939 254.466 245.729 254.921C246.118 254.634 246.507 254.322 246.926 254.059C248.093 253.245 249.32 252.461 250.517 251.665L251.618 250.929C251.475 250.803 249.745 249.259 249.32 248.278C248.937 247.41 248.692 246.189 249.182 245.315C249.29 245.104 249.442 244.918 249.627 244.77C249.811 244.621 250.026 244.513 250.255 244.453C250.485 244.393 250.724 244.383 250.958 244.422C251.192 244.461 251.415 244.549 251.612 244.681C252.779 245.495 252.767 248.068 252.39 249.283C252.39 249.373 251.834 250.588 251.684 250.887C252.492 250.348 253.288 249.804 254.048 249.235C255.087 248.478 256.073 247.65 256.998 246.758C256.933 246.698 255.125 245.094 254.688 244.094C254.305 243.221 254.06 242.006 254.551 241.102C254.66 240.892 254.812 240.708 254.997 240.56C255.182 240.413 255.396 240.306 255.625 240.246C255.854 240.186 256.093 240.175 256.326 240.213C256.56 240.251 256.783 240.338 256.981 240.468C258.148 241.288 258.136 243.855 257.759 245.076C257.759 245.154 257.334 246.075 257.16 246.512L257.226 246.56C258.138 245.639 258.965 244.637 259.698 243.568C260.111 242.969 260.47 242.407 260.805 241.832C260.44 241.569 258.776 240.342 258.279 239.48C257.782 238.618 257.423 237.481 257.818 236.554C257.903 236.333 258.032 236.132 258.199 235.964C258.366 235.797 258.567 235.666 258.788 235.582C259.009 235.497 259.245 235.46 259.481 235.473C259.717 235.485 259.948 235.548 260.158 235.656C261.409 236.338 261.685 238.894 261.445 240.144C261.445 240.21 261.224 240.887 261.062 241.377C261.212 241.12 261.367 240.851 261.505 240.599C262.026 239.654 262.439 238.756 262.804 237.96C263.007 237.505 263.181 237.086 263.336 236.697C263.109 236.248 262.229 234.435 262.181 233.465C262.133 232.496 262.349 231.293 263.127 230.647C263.304 230.49 263.513 230.372 263.739 230.3C263.965 230.229 264.203 230.206 264.439 230.233C264.674 230.261 264.901 230.337 265.105 230.458C265.309 230.578 265.485 230.741 265.622 230.934C266.412 232.131 265.479 234.525 264.689 235.506C264.623 235.596 263.402 236.823 263.39 236.799C263.241 237.176 263.085 237.583 262.899 237.996C262.552 238.804 262.157 239.714 261.661 240.671C261.134 241.712 260.547 242.721 259.901 243.693C259.195 244.785 258.394 245.812 257.507 246.764H257.471C257.836 246.566 258.878 246.039 258.967 246.01C260.164 245.567 262.726 245.411 263.606 246.53C263.747 246.72 263.846 246.938 263.898 247.169C263.95 247.4 263.952 247.639 263.905 247.871C263.858 248.103 263.763 248.322 263.626 248.515C263.489 248.708 263.313 248.87 263.109 248.99C262.259 249.535 261.032 249.355 260.117 249.02C259.111 248.649 257.465 247.003 257.334 246.871C256.396 247.815 255.397 248.695 254.341 249.505C253.743 249.977 253.096 250.438 252.456 250.893C252.779 250.725 253.055 250.582 253.114 250.57C254.311 250.127 256.873 249.971 257.753 251.091C257.894 251.281 257.993 251.498 258.045 251.729C258.096 251.96 258.099 252.199 258.052 252.431C258.005 252.663 257.91 252.883 257.773 253.075C257.636 253.268 257.46 253.43 257.256 253.55C256.406 254.095 255.179 253.915 254.263 253.58C253.348 253.245 251.929 251.875 251.552 251.503L250.816 252.018C249.619 252.832 248.422 253.646 247.303 254.472C246.896 254.765 246.513 255.07 246.106 255.37L246.675 255.094C247.872 254.651 250.433 254.496 251.319 255.615C251.46 255.805 251.559 256.023 251.61 256.254C251.661 256.486 251.663 256.725 251.616 256.957C251.568 257.189 251.473 257.408 251.335 257.601C251.197 257.794 251.02 257.955 250.816 258.075C249.966 258.619 248.74 258.44 247.824 258.105C246.908 257.77 245.633 256.531 245.185 256.094C244.802 256.417 244.413 256.734 244.053 257.063C243.814 257.291 243.563 257.494 243.335 257.74L242.647 258.446C242.222 258.907 241.785 259.385 241.384 259.846L240.582 260.786C240.977 260.493 241.779 259.93 241.839 259.888C242.952 259.29 245.466 258.727 246.507 259.703C246.675 259.87 246.806 260.07 246.892 260.291C246.977 260.512 247.015 260.748 247.003 260.984C246.992 261.221 246.93 261.452 246.823 261.663C246.716 261.875 246.565 262.061 246.382 262.21C245.627 262.875 244.389 262.886 243.455 262.689C242.432 262.474 240.624 261.163 240.397 260.995C239.864 261.57 239.445 262.067 239.056 262.551Z" fill="#263238"/>
<path d="M116.473 51.29L159.952 29.314L205.298 53.1572" stroke="#263238" stroke-miterlimit="10"/>
<path d="M227.082 46.1611H95.2383V91.5136H227.082V46.1611Z" fill="#263238"/>
<path d="M10.2261 18.0744C14.2718 14.5913 18.2416 11.0603 22.1357 7.48138C16.9689 5.92534 11.826 4.27156 6.70703 2.52002C7.78828 7.70281 8.96129 12.8876 10.2261 18.0744Z" fill="#F1C40F"/>
<path d="M28.2352 23.4367C32.1213 19.806 35.9276 16.1074 39.6541 12.341C34.4474 11.0124 29.2606 9.58401 24.0938 8.05591C25.3785 13.1868 26.759 18.3138 28.2352 23.4367Z" fill="#263238"/>
<path d="M45.7503 27.8716C49.4808 24.0772 53.1235 20.223 56.6785 16.309C51.4318 15.2038 46.1992 13.9929 40.9805 12.6763C42.4846 17.7473 44.0746 22.8124 45.7503 27.8716Z" fill="#F1C40F"/>
<path d="M64.0483 31.6958C67.6032 27.7259 71.0783 23.7201 74.4737 19.6784C69.1912 18.7926 63.9226 17.8072 58.668 16.7219C60.3756 21.7212 62.169 26.7125 64.0483 31.6958Z" fill="#263238"/>
<path d="M81.8129 34.6402C85.2002 30.5347 88.5058 26.3912 91.7296 22.2099C86.4072 21.5396 81.1067 20.7716 75.8281 19.9058C77.7273 24.8252 79.7222 29.7367 81.8129 34.6402Z" fill="#F1C40F"/>
<path d="M100.29 36.9262C103.482 32.681 106.604 28.3999 109.656 24.0829C104.33 23.6401 99.0135 23.0974 93.707 22.4551C95.8137 27.2987 98.0081 32.1224 100.29 36.9262Z" fill="#263238"/>
<path d="M118.177 38.3866C121.206 33.9978 124.15 29.593 127.011 25.1723C121.68 24.9489 116.35 24.6237 111.02 24.1968C113.318 28.9487 115.704 33.6786 118.177 38.3866Z" fill="#F1C40F"/>
<path d="M136.764 39.1347C139.609 34.6342 142.364 30.1097 145.029 25.5613C139.69 25.5613 134.354 25.4596 129.02 25.2561C131.517 29.9043 134.099 34.5305 136.764 39.1347Z" fill="#263238"/>
<path d="M154.699 39.1108C157.357 34.5026 159.926 29.8684 162.408 25.2083C157.073 25.4317 151.737 25.5474 146.398 25.5554C149.08 30.0878 151.847 34.6063 154.699 39.1108Z" fill="#F1C40F"/>
<path d="M173.282 38.3388C175.743 33.6228 178.117 28.8849 180.403 24.125C175.077 24.5519 169.745 24.8851 164.406 25.1245C167.283 29.5452 170.241 33.95 173.282 38.3388Z" fill="#263238"/>
<path d="M191.17 36.8065C193.436 31.9947 195.616 27.165 197.711 22.3174C192.401 22.9757 187.084 23.5283 181.762 23.9752C184.818 28.2922 187.954 32.5693 191.17 36.8065Z" fill="#F1C40F"/>
<path d="M209.65 34.4725C211.72 29.565 213.699 24.6455 215.586 19.7141C210.304 20.5999 205.013 21.3839 199.715 22.0661C202.947 26.2395 206.258 30.3749 209.65 34.4725Z" fill="#263238"/>
<path d="M227.399 31.4743C229.266 26.487 231.046 21.4997 232.737 16.5125C227.491 17.6136 222.224 18.6111 216.938 19.5048C220.345 23.5346 223.832 27.5244 227.399 31.4743Z" fill="#F1C40F"/>
<path d="M245.685 27.602C247.357 22.5389 248.931 17.4698 250.407 12.3948C245.196 13.7314 239.965 14.9562 234.715 16.0694C238.294 19.9595 241.95 23.8037 245.685 27.602Z" fill="#263238"/>
<path d="M263.197 23.1257C264.657 17.9948 266.03 12.8638 267.314 7.73291C262.127 9.27299 256.941 10.7133 251.754 12.0539C255.488 15.7964 259.303 19.487 263.197 23.1257Z" fill="#F1C40F"/>
<path d="M281.193 17.7093C282.438 12.5225 283.597 7.33571 284.671 2.14893C279.56 3.93238 274.421 5.59814 269.254 7.14619C273.168 10.7211 277.148 14.2421 281.193 17.7093Z" fill="#263238"/>
<path d="M290.001 0.473223C196.37 34.1792 93.916 34.1792 0.285156 0.473223L0.422805 0.108154C93.9684 33.7845 196.33 33.7845 289.875 0.108154C289.911 0.227849 289.953 0.347544 290.001 0.473223Z" fill="#263238"/>
<path d="M251.918 148.991L250.08 147.722C247.421 145.836 245.347 143.239 244.096 140.229L242.57 136.638H240.14L238.608 140.229C237.356 143.239 235.282 145.836 232.623 147.722L230.786 148.991C230.26 149.383 229.836 149.895 229.549 150.484C229.261 151.073 229.119 151.723 229.134 152.378H253.576C253.59 151.722 253.446 151.072 253.158 150.483C252.87 149.894 252.444 149.382 251.918 148.991ZM242.043 150.882H231.54C231.54 149.751 233.335 148.709 234.047 148.135L235.316 147.111C237.218 145.501 238.649 143.406 239.458 141.049L240.517 138.164H242.205L243.264 141.049C244.076 143.404 245.507 145.498 247.405 147.111L248.674 148.135C249.386 148.733 251.146 149.751 251.146 150.882H242.043Z" fill="white" stroke="#263238" stroke-linejoin="round"/>
<path d="M241.342 136.603V133.981C241.342 133.981 242.844 132.856 242.844 131.234C242.844 129.612 241.593 128.99 240.223 129.487" stroke="#263238" stroke-linecap="round" stroke-linejoin="round"/>
<path d="M234.364 145.035C234.364 145.035 237.147 148.243 240.648 148.297C244.358 148.356 248.721 145.107 248.721 145.107C249.716 145.964 250.799 146.712 251.953 147.339C253.898 148.398 255.179 149.954 256.196 152.642C257.333 155.634 259.841 163.797 259.841 163.797L252.617 164.15L253.605 180.536H229.57L231.198 163.839H224.184C224.184 163.839 226.506 152.821 227.571 150.673C228.636 148.524 234.364 145.035 234.364 145.035Z" fill="white" stroke="#263238" stroke-linejoin="round"/>
<path d="M231.203 163.839L231.574 155.083" stroke="#263238" stroke-linejoin="round"/>
<path d="M252.619 164.15L252.051 155.64" stroke="#263238" stroke-linejoin="round"/>
<path d="M248.191 148.991L246.354 147.722C243.695 145.836 241.621 143.239 240.369 140.229L238.837 136.638H236.401L234.875 140.229C233.624 143.239 231.55 145.836 228.891 147.722L227.053 148.991C226.527 149.382 226.101 149.894 225.813 150.483C225.525 151.072 225.381 151.722 225.395 152.378H249.831C249.847 151.724 249.707 151.075 249.422 150.486C249.136 149.897 248.715 149.384 248.191 148.991ZM238.311 150.882H227.801C227.801 149.751 229.597 148.709 230.309 148.135L231.578 147.111C233.476 145.498 234.907 143.404 235.719 141.049L236.778 138.164H238.46L239.519 141.049C240.332 143.404 241.762 145.498 243.661 147.111L244.93 148.135C245.642 148.733 247.401 149.751 247.401 150.882H238.311Z" fill="white" stroke="#263238" stroke-linejoin="round"/>
<path d="M237.606 136.603V133.981C237.606 133.981 239.102 132.856 239.102 131.234C239.102 129.612 237.857 128.99 236.48 129.487" stroke="#263238" stroke-linecap="round" stroke-linejoin="round"/>
<path d="M230.625 145.035C230.625 145.035 233.408 148.243 236.903 148.297C240.62 148.356 244.983 145.107 244.983 145.107C245.976 145.965 247.06 146.714 248.215 147.339C250.16 148.398 251.44 149.954 252.458 152.642C253.595 155.634 256.102 163.797 256.102 163.797L248.879 164.15L249.866 180.536H225.832L227.459 163.839H220.445C220.445 163.839 222.767 152.821 223.827 150.673C224.886 148.524 230.625 145.035 230.625 145.035Z" fill="#6B6B6B" stroke="#263238" stroke-linecap="round" stroke-linejoin="round"/>
<path d="M227.461 163.839L227.826 155.083" stroke="#263238" stroke-linejoin="round"/>
<path d="M248.881 164.15L248.312 155.64" stroke="#263238" stroke-linejoin="round"/>
<path d="M227.498 140.408L234.01 140.72V168.609H226.277L227.498 140.408Z" fill="white" stroke="#263238" stroke-linejoin="round"/>
<path d="M241.611 148.416L239.774 147.147C237.114 145.264 235.04 142.669 233.789 139.66L232.257 136.07H229.827L228.295 139.66C227.043 142.668 224.969 145.263 222.31 147.147L220.479 148.416C219.952 148.808 219.526 149.321 219.238 149.911C218.949 150.502 218.806 151.153 218.821 151.809H243.251C243.268 151.154 243.128 150.504 242.843 149.914C242.558 149.324 242.135 148.81 241.611 148.416ZM231.736 150.307H221.263C221.263 149.182 223.059 148.141 223.765 147.566L225.04 146.537C226.938 144.927 228.367 142.835 229.175 140.48L230.234 137.59H231.916L232.975 140.48C233.788 142.834 235.218 144.926 237.117 146.537L238.386 147.566C239.098 148.165 240.857 149.182 240.857 150.307H231.736Z" fill="white" stroke="#263238" stroke-linejoin="round"/>
<path d="M231.025 136.028V133.406C231.025 133.406 232.528 132.287 232.528 130.665C232.528 129.044 231.277 128.415 229.906 128.918" stroke="#263238" stroke-linecap="round" stroke-linejoin="round"/>
<path d="M227.504 140.408L230.335 165.293L233.794 139.66C233.794 139.66 239.701 145.705 241.646 146.77C243.591 147.836 245.357 149.242 245.884 152.067C246.41 154.892 249.241 183.188 249.241 183.188L242.706 183.541L243.304 199.532H216.905L218.491 182.834H212.285C212.285 182.834 216.175 152.264 217.235 150.146C218.294 148.027 227.504 140.408 227.504 140.408Z" fill="white" stroke="#263238" stroke-linejoin="round"/>
<path d="M227.501 140.408L230.978 166.951L230.146 168.052L222.414 145.136C222.414 145.136 224.85 141.198 227.501 140.408Z" fill="white" stroke="#263238" stroke-linejoin="round"/>
<path d="M233.791 139.66L229.039 174.683L239.812 144.867C239.812 144.867 233.755 139.068 233.791 139.66Z" fill="white" stroke="#263238" stroke-linejoin="round"/>
<path d="M217.257 150.128C217.257 150.128 212.2 174.665 211.099 180.476C209.998 186.288 209.441 195.666 209.441 195.666L219.107 195.941L221.86 154.52" fill="white"/>
<path d="M217.257 150.128C217.257 150.128 212.2 174.665 211.099 180.476C209.998 186.288 209.441 195.666 209.441 195.666L219.107 195.941L221.86 154.52" stroke="#263238" stroke-linejoin="round"/>
<path d="M245.253 150.128C245.253 150.128 250.304 174.665 251.411 180.476C252.518 186.288 253.069 195.666 253.069 195.666L243.403 195.941L240.645 154.52" fill="white"/>
<path d="M245.253 150.128C245.253 150.128 250.304 174.665 251.411 180.476C252.518 186.288 253.069 195.666 253.069 195.666L243.403 195.941L240.645 154.52" stroke="#263238" stroke-linejoin="round"/>
<path d="M229.047 174.684V199.808" stroke="#263238" stroke-linejoin="round"/>
<path d="M231.306 148.991L229.469 147.722C226.81 145.836 224.736 143.239 223.484 140.229L221.952 136.638H219.523L217.996 140.229C216.745 143.239 214.671 145.836 212.012 147.722L210.174 148.991C209.648 149.382 209.223 149.894 208.934 150.483C208.646 151.072 208.503 151.722 208.517 152.378H232.946C232.962 151.724 232.822 151.075 232.537 150.486C232.252 149.897 231.83 149.384 231.306 148.991ZM221.426 150.882H210.928C210.928 149.751 212.724 148.709 213.436 148.135L214.705 147.111C216.61 145.5 218.047 143.406 218.864 141.049L219.923 138.164H221.605L222.665 141.049C223.475 143.405 224.906 145.5 226.806 147.111L228.075 148.135C228.787 148.733 230.546 149.751 230.546 150.882H221.426Z" fill="white" stroke="#263238" stroke-linejoin="round"/>
<path d="M220.735 136.603V133.981C220.735 133.981 222.231 132.856 222.231 131.234C222.231 129.612 220.986 128.99 219.609 129.487" stroke="#263238" stroke-linecap="round" stroke-linejoin="round"/>
<path d="M217.207 140.977L220.062 149.104L223.521 140.229C223.521 140.229 229.428 146.28 231.373 147.339C233.318 148.398 235.083 149.817 235.616 152.641C236.149 155.466 238.974 183.762 238.974 183.762L232.432 184.115L233.031 200.106H206.638L208.23 183.409H202.012C202.012 183.409 205.896 152.839 206.955 150.714C208.014 148.59 217.207 140.977 217.207 140.977Z" fill="#263238" stroke="#263238" stroke-linejoin="round"/>
<path d="M214.555 142.922L216.147 151.582L219.504 145.927L217.379 139.918L214.555 142.922Z" fill="white" stroke="#263238" stroke-linejoin="round"/>
<path d="M223.497 140.229L220.57 146.1L223.575 151.935L226.046 142.216L223.497 140.229Z" fill="white" stroke="#263238" stroke-linejoin="round"/>
<path d="M232.405 184.097L230.992 157.238" stroke="#263238" stroke-linejoin="round"/>
<path d="M208.195 183.391L210.667 157.238" stroke="#263238" stroke-linejoin="round"/>
<path d="M221.728 148.991L219.891 147.722C217.232 145.836 215.158 143.239 213.906 140.229L212.374 136.638H209.944L208.418 140.229C207.167 143.239 205.093 145.836 202.434 147.722L200.596 148.991C200.07 149.382 199.644 149.894 199.356 150.483C199.068 151.072 198.924 151.722 198.938 152.378H223.368C223.384 151.724 223.244 151.075 222.959 150.486C222.673 149.897 222.252 149.384 221.728 148.991ZM211.848 150.882H201.35C201.35 149.751 203.146 148.709 203.858 148.135L205.127 147.111C207.032 145.5 208.468 143.406 209.286 141.049L210.345 138.164H212.027L213.086 141.049C213.897 143.405 215.327 145.5 217.228 147.111L218.497 148.135C219.209 148.733 220.968 149.751 220.968 150.882H211.848Z" fill="white" stroke="#263238" stroke-linejoin="round"/>
<path d="M211.16 136.603V133.981C211.16 133.981 212.656 132.856 212.656 131.234C212.656 129.612 211.412 128.99 210.035 129.487" stroke="#263238" stroke-linecap="round" stroke-linejoin="round"/>
<path d="M207.637 140.977L210.491 149.104L213.951 140.229C213.951 140.229 219.858 146.28 221.803 147.339C223.748 148.398 225.513 149.817 226.046 152.641C226.578 155.466 229.403 183.762 229.403 183.762L222.862 184.115L223.46 200.106H197.068L198.66 183.409H192.441C192.441 183.409 196.326 152.839 197.385 150.714C198.444 148.59 207.637 140.977 207.637 140.977Z" fill="#6B6B6B" stroke="#263238" stroke-linecap="round" stroke-linejoin="round"/>
<path d="M204.98 142.922L206.572 151.582L209.93 145.927L207.805 139.918L204.98 142.922Z" fill="white" stroke="#263238" stroke-linejoin="round"/>
<path d="M213.919 140.229L210.992 146.1L213.997 151.935L216.468 142.216L213.919 140.229Z" fill="white" stroke="#263238" stroke-linejoin="round"/>
<path d="M222.83 184.097L221.418 157.238" stroke="#263238" stroke-linejoin="round"/>
<path d="M198.621 183.391L201.093 157.238" stroke="#263238" stroke-linejoin="round"/>
<path d="M212.882 148.991L211.087 147.722C208.427 145.836 206.353 143.239 205.102 140.229L203.57 136.638H201.14L199.614 140.229C198.362 143.239 196.288 145.836 193.629 147.722L191.792 148.991C191.264 149.381 190.839 149.893 190.55 150.482C190.262 151.072 190.119 151.722 190.134 152.378H214.558C214.57 151.721 214.424 151.07 214.132 150.48C213.84 149.891 213.412 149.38 212.882 148.991ZM203.001 150.882H192.534C192.534 149.751 194.329 148.709 195.041 148.135L196.31 147.111C198.209 145.498 199.639 143.404 200.452 141.049L201.511 138.164H203.193L204.252 141.049C205.06 143.405 206.489 145.499 208.387 147.111L209.662 148.135C210.374 148.733 212.134 149.751 212.134 150.882H203.001Z" fill="white" stroke="#263238" stroke-linejoin="round"/>
<path d="M202.328 136.603V133.981C202.328 133.981 203.824 132.856 203.824 131.234C203.824 129.612 202.58 128.99 201.203 129.487" stroke="#263238" stroke-linecap="round" stroke-linejoin="round"/>
<path d="M195.352 145.035C195.352 145.035 198.135 148.243 201.63 148.297C205.346 148.356 209.709 145.107 209.709 145.107C210.703 145.965 211.786 146.714 212.941 147.339C214.886 148.398 216.161 149.954 217.184 152.642C218.321 155.634 220.829 163.797 220.829 163.797L213.605 164.15L214.593 180.536H190.558L192.186 163.839H185.172C185.172 163.839 187.494 152.821 188.553 150.673C189.613 148.524 195.352 145.035 195.352 145.035Z" fill="#A1A1A1" stroke="#263238" stroke-linecap="round" stroke-linejoin="round"/>
<path d="M192.188 163.839L192.553 155.083" stroke="#263238" stroke-linejoin="round"/>
<path d="M213.604 164.15L213.035 155.64" stroke="#263238" stroke-linejoin="round"/>
<path d="M204.04 148.991L202.209 147.722C199.55 145.836 197.476 143.239 196.224 140.229L194.692 136.638H192.262L190.73 140.229C189.481 143.24 187.406 145.838 184.745 147.722L182.956 148.991C182.428 149.381 182.003 149.893 181.714 150.482C181.426 151.072 181.283 151.722 181.298 152.378H205.698C205.713 151.722 205.57 151.072 205.282 150.482C204.993 149.893 204.567 149.381 204.04 148.991ZM194.165 150.882H183.668C183.668 149.751 185.463 148.709 186.17 148.135L187.444 147.111C189.343 145.499 190.772 143.405 191.58 141.049L192.639 138.164H194.327L195.386 141.049C196.194 143.405 197.623 145.499 199.521 147.111L200.796 148.135C201.502 148.733 203.268 149.751 203.268 150.882H194.165Z" fill="white" stroke="#263238" stroke-linejoin="round"/>
<path d="M193.473 136.603V133.981C193.473 133.981 194.969 132.856 194.969 131.234C194.969 129.612 193.718 128.99 192.348 129.487" stroke="#263238" stroke-linecap="round" stroke-linejoin="round"/>
<path d="M186.495 145.035C186.495 145.035 189.278 148.243 192.773 148.297C196.489 148.356 200.852 145.107 200.852 145.107C201.845 145.965 202.929 146.714 204.084 147.339C206.029 148.398 207.304 149.954 208.321 152.642C209.458 155.634 211.972 163.797 211.972 163.797L204.742 164.15L205.736 180.536H181.701L183.329 163.839H176.309C176.309 163.839 178.637 152.821 179.696 150.673C180.755 148.524 186.495 145.035 186.495 145.035Z" fill="white" stroke="#263238" stroke-linejoin="round"/>
<path d="M183.328 163.839L183.693 155.083" stroke="#263238" stroke-linejoin="round"/>
<path d="M204.738 164.15L204.176 155.64" stroke="#263238" stroke-linejoin="round"/>
<path d="M178.168 264.281V135.226C178.168 134.726 178.266 134.231 178.458 133.769C178.649 133.308 178.929 132.888 179.283 132.535C179.636 132.181 180.056 131.901 180.518 131.709C180.979 131.518 181.474 131.42 181.974 131.42H257.472C258.481 131.42 259.45 131.821 260.163 132.535C260.877 133.248 261.278 134.216 261.278 135.226V264.892" stroke="#263238" stroke-width="4" stroke-linejoin="round"/>
<path d="M155.597 148.991L153.76 147.722C151.101 145.836 149.027 143.239 147.775 140.229L146.249 136.638H143.819L142.287 140.229C141.036 143.239 138.961 145.836 136.302 147.722L134.477 148.991C133.952 149.383 133.528 149.895 133.24 150.484C132.953 151.073 132.811 151.723 132.825 152.378H157.255C157.269 151.722 157.126 151.072 156.837 150.483C156.549 149.894 156.124 149.382 155.597 148.991ZM145.722 150.882H135.219C135.219 149.751 137.015 148.709 137.727 148.135L138.996 147.111C140.896 145.5 142.327 143.405 143.137 141.049L144.196 138.164H145.878L146.937 141.049C147.75 143.404 149.18 145.498 151.079 147.111L152.347 148.135C153.06 148.733 154.819 149.751 154.819 150.882H145.722Z" fill="white" stroke="#263238" stroke-linejoin="round"/>
<path d="M145.025 136.603V133.981C145.025 133.981 146.522 132.856 146.522 131.234C146.522 129.612 145.277 128.99 143.906 129.487" stroke="#263238" stroke-linecap="round" stroke-linejoin="round"/>
<path d="M138.069 145.035C138.069 145.035 140.852 148.243 144.353 148.297C148.063 148.356 152.426 145.107 152.426 145.107C153.421 145.964 154.504 146.712 155.658 147.339C157.603 148.398 158.884 149.954 159.901 152.642C161.038 155.634 163.546 163.797 163.546 163.797L156.322 164.15L157.31 180.536H133.281L134.909 163.839H127.895C127.895 163.839 130.217 152.821 131.276 150.673C132.335 148.524 138.069 145.035 138.069 145.035Z" fill="white" stroke="#263238" stroke-linejoin="round"/>
<path d="M134.883 163.839L135.254 155.083" stroke="#263238" stroke-linejoin="round"/>
<path d="M156.303 164.15L155.734 155.64" stroke="#263238" stroke-linejoin="round"/>
<path d="M151.835 148.991L150.039 147.722C147.38 145.836 145.306 143.239 144.055 140.229L142.523 136.638H140.093L138.567 140.229C137.315 143.239 135.241 145.836 132.582 147.722L130.745 148.991C130.218 149.382 129.793 149.894 129.504 150.483C129.216 151.072 129.073 151.722 129.087 152.378H153.511C153.523 151.721 153.377 151.07 153.085 150.48C152.793 149.891 152.365 149.38 151.835 148.991ZM141.954 150.882H131.487C131.487 149.751 133.282 148.709 133.994 148.135L135.263 147.111C137.162 145.498 138.592 143.404 139.405 141.049L140.464 138.164H142.146L143.205 141.049C144.015 143.405 145.446 145.5 147.346 147.111L148.615 148.135C149.327 148.733 151.087 149.751 151.087 150.882H141.954Z" fill="white" stroke="#263238" stroke-linejoin="round"/>
<path d="M141.289 136.603V133.981C141.289 133.981 142.785 132.856 142.785 131.234C142.785 129.612 141.541 128.99 140.164 129.487" stroke="#263238" stroke-linecap="round" stroke-linejoin="round"/>
<path d="M134.309 145.035C134.309 145.035 137.092 148.243 140.587 148.297C144.304 148.356 148.666 145.107 148.666 145.107C149.66 145.965 150.743 146.714 151.898 147.339C153.843 148.398 155.124 149.954 156.141 152.642C157.278 155.634 159.786 163.797 159.786 163.797L152.562 164.15L153.55 180.536H129.515L131.143 163.839H124.129C124.129 163.839 126.451 152.821 127.51 150.673C128.57 148.524 134.309 145.035 134.309 145.035Z" fill="#6B6B6B" stroke="#263238" stroke-linecap="round" stroke-linejoin="round"/>
<path d="M131.145 163.839L131.51 155.083" stroke="#263238" stroke-linejoin="round"/>
<path d="M152.561 164.15L151.992 155.64" stroke="#263238" stroke-linejoin="round"/>
<path d="M131.182 140.408L137.693 140.72V168.609H129.961L131.182 140.408Z" fill="white" stroke="#263238" stroke-linejoin="round"/>
<path d="M145.285 148.416L143.459 147.147C140.801 145.263 138.727 142.668 137.475 139.66L135.949 136.07H133.519L131.987 139.66C130.734 142.668 128.66 145.263 126.002 147.147L124.165 148.416C123.639 148.809 123.214 149.322 122.927 149.912C122.64 150.503 122.498 151.153 122.513 151.809H146.943C146.958 151.153 146.815 150.502 146.526 149.911C146.238 149.321 145.812 148.808 145.285 148.416ZM135.41 150.307H124.907C124.907 149.182 126.702 148.141 127.414 147.566L128.689 146.537C130.587 144.927 132.016 142.835 132.825 140.48L133.884 137.59H135.566L136.625 140.48C137.438 142.834 138.868 144.926 140.766 146.537L142.035 147.566C142.747 148.165 144.507 149.182 144.507 150.307H135.41Z" fill="white" stroke="#263238" stroke-linejoin="round"/>
<path d="M134.705 136.028V133.406C134.705 133.406 136.207 132.287 136.207 130.665C136.207 129.044 134.956 128.415 133.586 128.918" stroke="#263238" stroke-linecap="round" stroke-linejoin="round"/>
<path d="M131.184 140.408L134.014 165.293L137.474 139.66C137.474 139.66 143.386 145.705 145.332 146.77C147.277 147.836 149.042 149.242 149.569 152.067C150.095 154.892 152.926 183.188 152.926 183.188L146.391 183.541L146.989 199.532H120.585L122.171 182.834H115.988C115.988 182.834 119.872 152.264 120.938 150.146C122.003 148.027 131.184 140.408 131.184 140.408Z" fill="white" stroke="#263238" stroke-linejoin="round"/>
<path d="M131.183 140.408L134.66 166.951L133.828 168.052L126.102 145.136C126.102 145.136 128.537 141.198 131.183 140.408Z" fill="white" stroke="#263238" stroke-linejoin="round"/>
<path d="M137.474 139.66L132.734 174.683L143.507 144.861C143.507 144.861 137.438 139.068 137.474 139.66Z" fill="white" stroke="#263238" stroke-linejoin="round"/>
<path d="M120.937 150.128C120.937 150.128 115.88 174.665 114.779 180.476C113.678 186.288 113.121 195.666 113.121 195.666L122.786 195.941L125.545 154.52" fill="white"/>
<path d="M120.937 150.128C120.937 150.128 115.88 174.665 114.779 180.476C113.678 186.288 113.121 195.666 113.121 195.666L122.786 195.941L125.545 154.52" stroke="#263238" stroke-linejoin="round"/>
<path d="M148.932 150.128C148.932 150.128 153.984 174.665 155.091 180.476C156.198 186.288 156.749 195.666 156.749 195.666L147.083 195.941L144.324 154.52" fill="white"/>
<path d="M148.932 150.128C148.932 150.128 153.984 174.665 155.091 180.476C156.198 186.288 156.749 195.666 156.749 195.666L147.083 195.941L144.324 154.52" stroke="#263238" stroke-linejoin="round"/>
<path d="M132.727 174.684V199.808" stroke="#263238" stroke-linejoin="round"/>
<path d="M134.986 148.991L133.149 147.722C130.49 145.836 128.416 143.239 127.164 140.229L125.632 136.638H123.202L121.676 140.229C120.424 143.239 118.35 145.836 115.691 147.722L113.854 148.991C113.327 149.382 112.902 149.894 112.614 150.483C112.325 151.072 112.182 151.722 112.196 152.378H136.626C136.642 151.724 136.502 151.075 136.216 150.486C135.931 149.897 135.509 149.384 134.986 148.991ZM125.105 150.882H114.608C114.608 149.751 116.404 148.709 117.116 148.135L118.384 147.111C120.276 145.496 121.7 143.402 122.508 141.049L123.567 138.164H125.249L126.308 141.049C127.117 143.406 128.548 145.501 130.45 147.111L131.719 148.135C132.431 148.733 134.19 149.751 134.19 150.882H125.105Z" fill="white" stroke="#263238" stroke-linejoin="round"/>
<path d="M124.414 136.603V133.981C124.414 133.981 125.91 132.856 125.91 131.234C125.91 129.612 124.666 128.99 123.289 129.487" stroke="#263238" stroke-linecap="round" stroke-linejoin="round"/>
<path d="M120.889 140.977L123.708 149.104L127.167 140.229C127.167 140.229 133.074 146.28 135.019 147.339C136.964 148.398 138.729 149.817 139.262 152.641C139.795 155.466 142.619 183.762 142.619 183.762L136.078 184.115L136.677 200.106H110.284L111.876 183.409H105.688C105.688 183.409 109.578 152.839 110.637 150.714C111.696 148.59 120.889 140.977 120.889 140.977Z" fill="#263238" stroke="#263238" stroke-linejoin="round"/>
<path d="M118.238 142.922L119.83 151.582L123.188 145.927L121.063 139.918L118.238 142.922Z" fill="white" stroke="#263238" stroke-linejoin="round"/>
<path d="M127.173 140.229L124.246 146.1L127.25 151.935L129.722 142.216L127.173 140.229Z" fill="white" stroke="#263238" stroke-linejoin="round"/>
<path d="M136.088 184.097L134.676 157.238" stroke="#263238" stroke-linejoin="round"/>
<path d="M111.875 183.391L114.347 157.238" stroke="#263238" stroke-linejoin="round"/>
<path d="M125.412 148.991L123.575 147.722C120.916 145.836 118.842 143.239 117.59 140.229L116.058 136.638H113.628L112.102 140.229C110.85 143.239 108.776 145.836 106.117 147.722L104.28 148.991C103.753 149.382 103.328 149.894 103.04 150.483C102.751 151.072 102.608 151.722 102.622 152.378H127.052C127.068 151.724 126.927 151.075 126.642 150.486C126.357 149.897 125.935 149.384 125.412 148.991ZM115.531 150.882H105.034C105.034 149.751 106.829 148.709 107.541 148.135L108.81 147.111C110.702 145.496 112.126 143.402 112.934 141.049L113.993 138.164H115.675L116.734 141.049C117.542 143.406 118.973 145.501 120.876 147.111L122.144 148.135C122.856 148.733 124.616 149.751 124.616 150.882H115.531Z" fill="white" stroke="#263238" stroke-linejoin="round"/>
<path d="M114.836 136.603V133.981C114.836 133.981 116.332 132.856 116.332 131.234C116.332 129.612 115.087 128.99 113.711 129.487" stroke="#263238" stroke-linecap="round" stroke-linejoin="round"/>
<path d="M111.315 140.977L114.133 149.104L117.593 140.229C117.593 140.229 123.499 146.28 125.445 147.339C127.39 148.398 129.155 149.817 129.688 152.641C130.22 155.466 133.045 183.762 133.045 183.762L126.504 184.115L127.102 200.106H100.71L102.302 183.409H96.1133C96.1133 183.409 100.003 152.839 101.063 150.714C102.122 148.59 111.315 140.977 111.315 140.977Z" fill="#6B6B6B" stroke="#263238" stroke-linecap="round" stroke-linejoin="round"/>
<path d="M108.664 142.922L110.256 151.582L113.613 145.927L111.489 139.918L108.664 142.922Z" fill="white" stroke="#263238" stroke-linejoin="round"/>
<path d="M117.598 140.229L114.672 146.1L117.676 151.935L120.148 142.216L117.598 140.229Z" fill="white" stroke="#263238" stroke-linejoin="round"/>
<path d="M126.514 184.097L125.102 157.238" stroke="#263238" stroke-linejoin="round"/>
<path d="M102.297 183.391L104.769 157.238" stroke="#263238" stroke-linejoin="round"/>
<path d="M116.586 148.991L114.731 147.722C112.072 145.836 109.998 143.239 108.746 140.229L107.214 136.638H104.784L103.258 140.229C102.007 143.239 99.9325 145.836 97.2735 147.722L95.4362 148.991C94.9089 149.381 94.4831 149.893 94.1947 150.482C93.9062 151.072 93.7634 151.722 93.7784 152.378H118.208C118.226 151.725 118.089 151.077 117.807 150.488C117.525 149.899 117.106 149.386 116.586 148.991ZM106.705 150.882H96.2082C96.2082 149.751 98.0036 148.709 98.7158 148.135L99.9846 147.111C101.883 145.498 103.313 143.404 104.126 141.049L105.185 138.164H106.867L107.926 141.049C108.735 143.405 110.163 145.499 112.062 147.111L113.337 148.135C114.049 148.733 115.808 149.751 115.808 150.882H106.705Z" fill="white" stroke="#263238" stroke-linejoin="round"/>
<path d="M106.008 136.603V133.981C106.008 133.981 107.504 132.856 107.504 131.234C107.504 129.612 106.259 128.99 104.883 129.487" stroke="#263238" stroke-linecap="round" stroke-linejoin="round"/>
<path d="M99.0316 145.035C99.0316 145.035 101.815 148.243 105.31 148.297C109.026 148.356 113.389 145.107 113.389 145.107C114.382 145.965 115.466 146.714 116.621 147.339C118.566 148.398 119.841 149.954 120.864 152.642C122.001 155.634 124.509 163.797 124.509 163.797L117.285 164.15L118.273 180.536H94.2378L95.8657 163.839H88.8516C88.8516 163.839 91.1737 152.821 92.233 150.673C93.2923 148.524 99.0316 145.035 99.0316 145.035Z" fill="#A1A1A1" stroke="#263238" stroke-linecap="round" stroke-linejoin="round"/>
<path d="M95.8672 163.839L96.2323 155.083" stroke="#263238" stroke-linejoin="round"/>
<path d="M117.283 164.15L116.715 155.64" stroke="#263238" stroke-linejoin="round"/>
<path d="M107.724 148.991L105.887 147.722C103.228 145.836 101.154 143.239 99.9023 140.229L98.3702 136.638H95.9404L94.4083 140.229C93.1566 143.239 91.0826 145.836 88.4235 147.722L86.6042 148.991C86.0769 149.381 85.6511 149.893 85.3626 150.482C85.0742 151.072 84.9314 151.722 84.9464 152.378H109.376C109.392 151.723 109.25 151.073 108.963 150.483C108.675 149.894 108.251 149.382 107.724 148.991ZM97.8495 150.882H87.3523C87.3523 149.751 89.1477 148.709 89.8539 148.135L91.1286 147.111C93.0272 145.499 94.4559 143.405 95.2641 141.049L96.3234 138.164H98.0111L99.0704 141.049C99.8786 143.405 101.307 145.499 103.206 147.111L104.481 148.135C105.187 148.733 106.952 149.751 106.952 150.882H97.8495Z" fill="white" stroke="#263238" stroke-linejoin="round"/>
<path d="M97.1564 136.603V133.981C97.1564 133.981 98.6526 132.856 98.6526 131.234C98.6526 129.612 97.4018 128.99 96.0312 129.487" stroke="#263238" stroke-linecap="round" stroke-linejoin="round"/>
<path d="M90.1936 145.035C90.1936 145.035 92.9765 148.243 96.4716 148.297C100.188 148.356 104.551 145.107 104.551 145.107C105.544 145.965 106.628 146.714 107.783 147.339C109.728 148.398 111.003 149.954 112.02 152.642C113.157 155.634 115.671 163.797 115.671 163.797L108.441 164.15L109.435 180.536H85.4058L87.0337 163.839H80.0195C80.0195 163.839 82.3476 152.821 83.4069 150.673C84.4662 148.524 90.1936 145.035 90.1936 145.035Z" fill="white" stroke="#263238" stroke-linejoin="round"/>
<path d="M87.0117 163.839L87.3768 155.083" stroke="#263238" stroke-linejoin="round"/>
<path d="M108.422 164.15L107.859 155.64" stroke="#263238" stroke-linejoin="round"/>
<path d="M81.8164 264.281V135.226C81.8164 134.216 82.2174 133.248 82.9313 132.535C83.6451 131.821 84.6132 131.42 85.6227 131.42H161.156C162.166 131.42 163.134 131.821 163.848 132.535C164.562 133.248 164.963 134.216 164.963 135.226V264.892" stroke="#263238" stroke-width="4" stroke-linejoin="round"/>
<path d="M127.852 133.131C127.852 133.131 123.363 145.549 123.363 148.243C123.363 150.936 123.214 170.386 123.363 173.827C123.513 177.269 123.214 178.166 123.363 180.261C123.513 182.356 126.505 186.695 126.805 187.143C127.104 187.592 129.797 187.293 130.395 186.695C130.994 186.096 130.246 185.049 130.246 185.049C130.246 185.049 131.293 184.6 131.443 183.852C131.473 183.608 131.449 183.361 131.371 183.128C131.293 182.895 131.164 182.682 130.994 182.505C130.994 182.505 132.191 181.308 131.443 180.411C131.226 180.15 130.95 179.946 130.637 179.816C130.324 179.685 129.985 179.633 129.647 179.663C129.647 179.663 130.844 176.82 130.545 175.024C130.246 173.229 129.797 171.434 129.797 171.434C129.797 171.434 135.931 139.265 136.231 138.218L136.53 137.171V135.675L127.852 133.131Z" fill="white" stroke="#263238" stroke-linecap="round" stroke-linejoin="round"/>
<path d="M125.91 175.623C125.91 175.623 124.862 180.56 125.311 181.458C125.76 182.356 127.855 185.348 128.902 185.498C129.949 185.647 130.099 184.6 129.5 183.403C128.902 182.206 128.453 181.009 128.453 181.009C128.988 180.26 129.335 179.393 129.466 178.482C129.596 177.571 129.505 176.641 129.201 175.772" fill="white"/>
<path d="M125.91 175.623C125.91 175.623 124.862 180.56 125.311 181.458C125.76 182.356 127.855 185.348 128.902 185.498C129.949 185.647 130.099 184.6 129.5 183.403C128.902 182.206 128.453 181.009 128.453 181.009C128.988 180.26 129.335 179.393 129.466 178.482C129.596 177.571 129.505 176.641 129.201 175.772" stroke="#263238" stroke-linecap="round" stroke-linejoin="round"/>
<path d="M160.02 214.673L167.65 255.37H176.627L177.974 213.925L160.02 214.673Z" fill="white" stroke="#263238" stroke-linecap="round" stroke-linejoin="round"/>
<path d="M176.631 255.37C176.631 255.37 177.079 251.629 174.386 250.133C171.693 248.637 167.803 250.133 167.803 251.18C167.759 252.183 167.659 253.182 167.504 254.173C167.504 254.173 165.409 257.913 164.512 260.008C163.614 262.103 165.559 263.898 166.606 264.197C167.654 264.496 177.977 264.197 177.977 264.197C177.977 264.197 180.221 263.299 179.773 261.205C179.592 260.241 179.342 259.29 179.025 258.362L176.631 255.37Z" fill="#F1C40F" stroke="#263238" stroke-linecap="round" stroke-linejoin="round"/>
<path d="M179.609 262.701C178.556 262.85 175.731 263 175.731 263C175.731 263 173.038 260.157 172.14 260.307C171.243 260.457 168.849 263.299 168.849 263.299H165.258C165.627 263.707 166.092 264.015 166.61 264.197C167.658 264.496 177.981 264.197 177.981 264.197C178.674 263.891 179.246 263.365 179.609 262.701Z" fill="white" stroke="#263238" stroke-linecap="round" stroke-linejoin="round"/>
<path d="M175.878 254.023H168.098V257.165H175.878V254.023Z" fill="white" stroke="#263238" stroke-linecap="round" stroke-linejoin="round"/>
<path d="M137.427 213.177C137.427 213.177 138.924 231.281 140.42 239.061C141.916 246.841 142.514 250.731 142.514 250.731C142.514 250.731 140.869 253.275 140.42 253.873C140.115 254.264 139.764 254.616 139.372 254.921C139.372 254.921 132.34 258.811 130.545 259.858C128.75 260.905 127.852 262.102 128.45 263.299C129.049 264.496 130.994 264.496 131.742 264.496H151.791C152.691 263.345 153.167 261.918 153.137 260.457C152.988 258.212 152.539 257.464 152.539 257.464C152.539 257.464 153.586 255.669 153.287 254.322C153.194 253.641 152.879 253.01 152.389 252.527C152.389 252.527 153.885 221.556 153.885 218.563V211.531H137.278L137.427 213.177Z" fill="white" stroke="#263238" stroke-linecap="round" stroke-linejoin="round"/>
<path d="M153.141 260.456C152.991 258.212 152.542 257.464 152.542 257.464C152.542 257.464 153.59 255.669 153.29 254.322C153.193 253.792 152.99 253.287 152.692 252.838C150.298 254.208 145.235 254.472 145.235 254.472C145.4 253.366 145.298 252.237 144.936 251.18C144.337 249.085 142.542 250.731 142.542 250.731C142.542 250.731 140.896 253.275 140.447 253.873C140.143 254.264 139.791 254.616 139.4 254.92C139.4 254.92 132.368 258.811 130.572 259.858C128.777 260.905 127.879 262.102 128.478 263.299C129.076 264.496 131.021 264.496 131.769 264.496H151.818C152.71 263.341 153.177 261.915 153.141 260.456Z" fill="#F1C40F" stroke="#263238" stroke-linecap="round" stroke-linejoin="round"/>
<path d="M141.019 253.873C141.895 254.148 142.673 254.667 143.264 255.369C143.708 255.989 144.108 256.639 144.461 257.315L140.421 259.11C140.421 259.11 138.625 256.716 137.578 256.267C137.578 256.267 139.822 253.574 141.019 253.873Z" fill="white" stroke="#263238" stroke-linecap="round" stroke-linejoin="round"/>
<path d="M149.544 262.103C147.599 262.701 133.236 262.851 132.338 262.701C131.44 262.551 131.74 261.205 131.291 260.307C131.009 259.751 129.92 260.349 129.136 260.906C128.328 261.678 128.035 262.498 128.448 263.299C129.046 264.496 130.991 264.496 131.74 264.496H151.788C152.689 263.345 153.165 261.918 153.135 260.457C151.938 260.307 151.489 261.504 149.544 262.103Z" fill="white" stroke="#263238" stroke-linecap="round" stroke-linejoin="round"/>
<path d="M129.645 170.835C129.645 170.835 128.448 185.947 128.448 190.286C128.448 194.624 128.148 212.878 128.148 212.878C131.975 214.159 135.945 214.963 139.968 215.272C145.803 215.571 153.284 214.225 153.284 214.225C155.895 215.789 158.797 216.807 161.813 217.217C166.301 217.666 176.176 216.768 177.373 216.319C178.57 215.87 181.862 214.673 181.862 214.673L182.31 173.079L151.639 163.953L129.645 170.835Z" fill="white" stroke="#263238" stroke-linecap="round" stroke-linejoin="round"/>
<path d="M153.286 214.224L153.137 188.49" stroke="#263238" stroke-linecap="round" stroke-linejoin="round"/>
<path d="M154.932 103.806C154.932 103.806 148.499 105.9 142.664 108.444C136.829 110.987 134.135 112.484 130.844 119.516C127.552 126.548 124.41 132.233 124.41 132.233L134.285 138.068L128.001 170.984L142.215 182.655L147.152 178.615L153.735 185.797C153.735 185.797 163.61 181.907 166.902 180.71C170.194 179.513 182.911 174.276 182.911 174.276L185.305 134.477L185.155 115.925C185.155 115.925 182.911 112.932 177.974 109.342C173.036 105.751 168.997 103.506 164.508 102.758C160.019 102.01 154.932 103.806 154.932 103.806Z" fill="#263238" stroke="#263238" stroke-linecap="round" stroke-linejoin="round"/>
<path d="M155.384 113.531C155.384 113.531 147.305 164.401 147.305 176.221" stroke="white" stroke-linecap="round" stroke-linejoin="round"/>
<path d="M134.285 138.068L139.522 117.122" stroke="white" stroke-linecap="round" stroke-linejoin="round"/>
<path d="M153.264 102.561C153.264 102.561 150.451 105.942 149.673 108.719C148.895 111.496 147.112 112.22 149.033 112.34C150.954 112.46 157.872 111.496 159.279 112.22C160.685 112.944 165.425 117.774 166.58 117.17C167.735 116.565 167.987 114.177 168.753 111.855C169.519 109.533 168.244 104.973 165.299 102.68C162.355 100.388 157.106 99.6581 153.264 102.561Z" fill="white" stroke="#263238" stroke-linecap="round" stroke-linejoin="round"/>
<path d="M155.571 103.004C155.571 103.004 154.973 112.651 156.17 112.651C157.367 112.651 164.644 104.063 164.644 104.063L155.571 103.004Z" fill="white" stroke="#263238" stroke-linecap="round" stroke-linejoin="round"/>
<path d="M155.577 103.004C155.577 103.004 155.499 104.315 155.457 105.966C157.138 107.16 159.181 107.735 161.238 107.594L161.567 107.558C163.237 105.709 164.638 104.063 164.638 104.063L155.577 103.004Z" fill="#263238" stroke="#263238" stroke-linecap="round" stroke-linejoin="round"/>
<path d="M155.427 86.8809C155.427 86.8809 154.721 83.8167 152.956 86.2824C151.19 88.7481 153.782 92.6382 153.782 92.6382L155.427 86.8809Z" fill="white" stroke="#263238" stroke-linecap="round" stroke-linejoin="round"/>
<path d="M156.512 79.5795C156.512 79.5795 154.801 79.3102 154.801 81.6443C154.834 83.2186 155.064 84.7826 155.483 86.3004L158.092 79.8608L156.991 79.7232" fill="#D4D4D4"/>
<path d="M156.512 79.5795C156.512 79.5795 154.801 79.3102 154.801 81.6443C154.834 83.2186 155.064 84.7826 155.483 86.3004L158.092 79.8608L156.991 79.7232" stroke="#6E6E6E" stroke-linecap="round" stroke-linejoin="round"/>
<path d="M156.988 78.1671C156.988 78.1671 152.984 94.0566 153.104 96.2949C153.224 98.5332 155.696 103.824 159.687 103.824C163.679 103.824 168.635 102.627 170.28 100.412C171.926 98.1981 175.457 90.0588 176.403 87.4674C177.348 84.876 177.462 81.5844 175.344 78.7596C173.225 75.9348 164.984 75.3483 161.692 75.7014C160.78 75.7631 159.891 76.0143 159.081 76.4388C158.271 76.8633 157.558 77.4519 156.988 78.1671Z" fill="white" stroke="#263238" stroke-miterlimit="10"/>
<path d="M156.512 79.5795L174.873 78.6399C174.873 78.6399 175.58 78.4065 175.933 76.9941C176.286 75.5817 171.462 72.2841 164.867 71.2248C158.272 70.1655 153.927 72.1704 154.394 75.7014C154.86 79.2324 156.512 79.5795 156.512 79.5795Z" fill="#D4D4D4" stroke="#6E6E6E" stroke-miterlimit="10"/>
<path d="M175.582 90.8785C175.582 90.8785 178.88 89.6816 179.346 92.2909C179.813 94.9003 177.467 96.0613 175.815 96.4144C174.164 96.7675 173.344 96.175 173.344 96.175L175.582 90.8785Z" fill="white" stroke="#263238" stroke-linecap="round" stroke-linejoin="round"/>
<path d="M175.934 78.8733C175.934 78.8733 175.778 78.975 175.551 79.1426C174.815 79.6872 173.313 80.938 173.582 81.8178C174.094 83.6676 174.449 85.5576 174.641 87.4674C174.641 88.5267 171.344 96.7677 170.165 97.3542C169.463 97.7062 168.709 97.9446 167.932 98.0604C167.653 96.4395 167.006 94.904 166.041 93.5718C165.613 93.1192 165.093 92.764 164.515 92.5305C164.515 92.5305 162.528 94.2481 160.87 93.4701C159.326 92.7459 159.673 90.1725 159.673 90.1725C159.673 90.1725 155.676 91.8243 154.377 92.9973C153.078 94.1703 152.145 95.5887 152.145 98.8863C152.145 102.184 156.849 106.768 161.792 106.295C166.735 105.823 170.171 104.416 171.679 100.999C173.187 97.5816 176.036 90.5256 176.856 88.7601C177.675 86.9946 178.741 84.6426 178.388 82.524C178.035 80.4054 175.934 78.8733 175.934 78.8733Z" fill="#D4D4D4" stroke="#6E6E6E" stroke-miterlimit="10"/>
<path d="M162.397 86.408C162.397 86.8808 159.691 90.1724 159.691 90.1724" stroke="#263238" stroke-miterlimit="10"/>
<path d="M160.161 88.2932L157.336 88.6463" stroke="#263238" stroke-miterlimit="10"/>
<path d="M164.867 88.8796C164.867 88.8796 166.752 90.5254 168.165 90.6751" stroke="#263238" stroke-miterlimit="10"/>
<path d="M158.629 82.7575C158.629 82.7575 160.161 80.6389 162.866 82.7575" stroke="#263238" stroke-miterlimit="10"/>
<path d="M166.277 83.8226C166.277 83.8226 170.281 83.3558 170.634 87.593" stroke="#263238" stroke-miterlimit="10"/>
<path d="M167.181 87.1022C166.953 87.7007 166.498 88.1076 166.163 87.9819C165.828 87.8563 165.738 87.2638 165.966 86.6533C166.193 86.0429 166.648 85.6539 166.983 85.7736C167.318 85.8933 167.396 86.4917 167.181 87.1022Z" fill="#263238"/>
<path d="M160.414 85.4564C160.193 86.0549 159.738 86.4619 159.403 86.3362C159.068 86.2105 158.978 85.618 159.199 85.0076C159.421 84.3971 159.882 84.0021 160.217 84.1278C160.552 84.2535 160.642 84.846 160.414 85.4564Z" fill="#263238"/>
<path d="M157.695 94.4094C157.695 94.4094 159.227 96.528 163.931 96.2946" stroke="#263238" stroke-linecap="round" stroke-linejoin="round"/>
<path d="M161.678 165.269C160.264 165.941 158.895 166.703 157.579 167.55C156.747 168.232 154.467 169.746 154.239 170.434C154.012 171.122 155.436 171.416 156.136 171.116C156.815 170.771 157.474 170.39 158.111 169.973L159.631 169.746L162.971 165.724C162.971 165.724 162.893 165.216 161.678 165.269Z" fill="white" stroke="#263238" stroke-linecap="round" stroke-linejoin="round"/>
<path d="M181.887 139.445L183.533 146.626C183.533 146.626 180.217 148.392 175.753 153.778C173.09 156.984 170.189 159.985 167.075 162.755C167.075 162.755 166.135 164.066 163.143 164.814C160.15 165.562 158.271 169.919 157.374 171.266C156.476 172.612 156.015 173.851 156.613 174.001C157.212 174.15 158.547 173.229 158.547 173.229C158.547 173.229 158.098 175.024 159.295 174.875C159.659 174.809 160.002 174.653 160.29 174.419C160.578 174.186 160.801 173.883 160.94 173.54C160.94 173.54 160.887 176.179 162.383 174.982C163.879 173.785 163.37 174.15 163.37 174.15C163.37 174.15 163.616 175.802 164.663 174.749C165.71 173.696 168.421 171.577 168.421 171.577C168.421 171.577 170.516 170.38 170.965 168.884C171.293 167.912 171.859 167.038 172.611 166.34C172.611 166.34 185.454 158.979 188.883 156.316C192.313 153.653 194.928 148.715 195.377 147.967C195.826 147.219 192.534 135.1 192.534 135.1L181.887 139.445Z" fill="white" stroke="#263238" stroke-linecap="round" stroke-linejoin="round"/>
<path d="M158.527 173.229C158.527 173.229 161.376 167.842 162.747 167.244" stroke="#263238" stroke-linecap="round" stroke-linejoin="round"/>
<path d="M160.914 173.54C160.914 173.54 163.194 169.351 165.014 168.154" stroke="#263238" stroke-linecap="round" stroke-linejoin="round"/>
<path d="M163.348 174.15C163.348 174.15 165.095 170.733 167.07 169.746" stroke="#263238" stroke-linecap="round" stroke-linejoin="round"/>
<path d="M182.761 113.531C182.761 113.531 186.202 115.476 187.698 118.319C189.194 121.162 195.802 136.303 195.802 136.303L180.69 141.689L177.398 131.066" fill="#263238"/>
<path d="M182.761 113.531C182.761 113.531 186.202 115.476 187.698 118.319C189.194 121.162 195.802 136.303 195.802 136.303L180.69 141.689L177.398 131.066" stroke="#263238" stroke-linecap="round" stroke-linejoin="round"/>
<path d="M174.621 127.135L179.14 141.719L182.264 140.678" stroke="white" stroke-linecap="round" stroke-linejoin="round"/>
<path d="M179.968 154.389H159.273C154.605 154.389 150.816 153.677 150.816 155.813C150.816 157.95 151.415 158.429 153.15 158.429H183.774C183.774 158.429 186.695 158.429 186.695 156.286C186.695 154.144 182.027 154.389 179.968 154.389Z" fill="white" stroke="#263238" stroke-linecap="round" stroke-linejoin="round"/>
<path d="M179.968 158.189H159.273C154.605 158.189 150.816 157.477 150.816 159.614C150.816 161.75 151.415 162.229 153.15 162.229H183.774C183.774 162.229 186.695 162.229 186.695 160.087C186.695 157.944 182.027 158.189 179.968 158.189Z" fill="#A1A1A1" stroke="#263238" stroke-linecap="round" stroke-linejoin="round"/>
<path d="M179.968 161.99H159.273C154.605 161.99 150.816 161.277 150.816 163.414C150.816 165.551 151.415 166.029 153.15 166.029H183.774C183.774 166.029 186.695 166.029 186.695 163.893C186.695 161.756 182.027 161.99 179.968 161.99Z" fill="white" stroke="#263238" stroke-linecap="round" stroke-linejoin="round"/>
<path d="M179.968 165.814H159.273C154.605 165.814 150.816 165.101 150.816 167.238C150.816 169.375 151.415 169.853 153.15 169.853H183.774C183.774 169.853 186.695 169.853 186.695 167.717C186.695 165.58 182.027 165.814 179.968 165.814Z" fill="#A1A1A1" stroke="#263238" stroke-linecap="round" stroke-linejoin="round"/>
<path d="M142.172 153.318C143.661 154.04 144.865 155.241 145.589 156.729C146.387 158.616 146.988 160.579 147.385 162.588C147.385 162.588 152.771 162.588 152.915 164.623C153.058 166.658 152.43 167.466 151.287 168.442C150.098 169.266 148.667 169.668 147.223 169.585C146.732 169.417 139.742 169.255 139.742 169.255L139.904 153.964C139.904 153.964 140.873 152.013 142.172 153.318Z" fill="white" stroke="#263238" stroke-linecap="round" stroke-linejoin="round"/>
<path d="M126.236 150.852C126.236 150.852 123.794 151.666 120.706 155.73C117.618 159.793 119.563 168.256 120.706 169.231C121.849 170.207 142.85 168.579 142.85 168.579C142.85 168.579 144.316 165.168 144.316 159.147C144.316 153.126 140.57 150.362 135.207 149.572C129.845 148.782 126.236 150.852 126.236 150.852Z" fill="white" stroke="#263238" stroke-linecap="round" stroke-linejoin="round"/>
<path d="M133.558 158.602C139.217 158.602 143.804 154.232 143.804 148.841C143.804 143.45 139.217 139.08 133.558 139.08C127.9 139.08 123.312 143.45 123.312 148.841C123.312 154.232 127.9 158.602 133.558 158.602Z" fill="white" stroke="#263238" stroke-linecap="round" stroke-linejoin="round"/>
<path d="M133.471 158.926C135.94 158.926 137.941 157.141 137.941 154.94C137.941 152.738 135.94 150.954 133.471 150.954C131.002 150.954 129 152.738 129 154.94C129 157.141 131.002 158.926 133.471 158.926Z" fill="white" stroke="#263238" stroke-linecap="round" stroke-linejoin="round"/>
<path d="M133.397 157.95C134.296 157.95 135.025 157.403 135.025 156.729C135.025 156.055 134.296 155.508 133.397 155.508C132.498 155.508 131.77 156.055 131.77 156.729C131.77 157.403 132.498 157.95 133.397 157.95Z" fill="#263238" stroke="#263238" stroke-linecap="round" stroke-linejoin="round"/>
<path d="M129.326 150.631C129.775 150.631 130.14 150.049 130.14 149.332C130.14 148.615 129.775 148.033 129.326 148.033C128.876 148.033 128.512 148.615 128.512 149.332C128.512 150.049 128.876 150.631 129.326 150.631Z" fill="#263238"/>
<path d="M138.433 149.332C138.433 150.05 138.067 150.631 137.619 150.631C137.17 150.631 136.805 150.032 136.805 149.332C136.805 148.632 137.17 148.027 137.619 148.027C138.067 148.027 138.433 148.614 138.433 149.332Z" fill="#263238"/>
<path d="M123.985 148.333C124.848 146.46 125.984 144.726 127.354 143.186C127.135 142.482 126.725 141.853 126.169 141.368C125.614 140.883 124.935 140.562 124.208 140.44C123.481 140.318 122.735 140.4 122.052 140.676C121.368 140.953 120.775 141.414 120.338 142.008C119.901 142.601 119.638 143.305 119.576 144.039C119.515 144.774 119.659 145.511 119.991 146.169C120.324 146.827 120.832 147.379 121.46 147.766C122.088 148.152 122.811 148.356 123.548 148.356C123.709 148.356 123.841 148.344 123.985 148.333Z" fill="white" stroke="#263238" stroke-linecap="round" stroke-linejoin="round"/>
<path d="M123.552 146.567C124.765 146.567 125.748 145.584 125.748 144.371C125.748 143.158 124.765 142.174 123.552 142.174C122.339 142.174 121.355 143.158 121.355 144.371C121.355 145.584 122.339 146.567 123.552 146.567Z" fill="white" stroke="#263238" stroke-linecap="round" stroke-linejoin="round"/>
<path d="M141.973 148.333C141.108 146.46 139.971 144.725 138.598 143.186C138.817 142.482 139.227 141.853 139.782 141.368C140.337 140.883 141.016 140.562 141.743 140.44C142.47 140.318 143.217 140.4 143.9 140.676C144.583 140.953 145.176 141.414 145.613 142.008C146.05 142.601 146.314 143.305 146.375 144.039C146.437 144.774 146.293 145.511 145.96 146.169C145.628 146.827 145.119 147.379 144.492 147.766C143.864 148.152 143.141 148.356 142.404 148.356C142.266 148.356 142.117 148.344 141.973 148.333Z" fill="white" stroke="#263238" stroke-linecap="round" stroke-linejoin="round"/>
<path d="M140.207 144.371C140.207 143.936 140.336 143.512 140.577 143.15C140.819 142.789 141.162 142.508 141.563 142.342C141.964 142.175 142.406 142.132 142.832 142.217C143.258 142.301 143.649 142.51 143.957 142.818C144.264 143.125 144.473 143.516 144.558 143.942C144.642 144.368 144.599 144.81 144.433 145.211C144.266 145.613 143.985 145.956 143.624 146.197C143.262 146.438 142.838 146.567 142.403 146.567C141.821 146.567 141.262 146.336 140.85 145.924C140.438 145.512 140.207 144.953 140.207 144.371Z" fill="white" stroke="#263238" stroke-linecap="round" stroke-linejoin="round"/>
<path d="M133.226 163.42H145.913C145.913 163.42 148.355 156.586 151.934 158.537C155.513 160.488 153.233 169.603 153.233 169.603H127.211" fill="white"/>
<path d="M133.226 163.42H145.913C145.913 163.42 148.355 156.586 151.934 158.537C155.513 160.488 153.233 169.603 153.233 169.603H127.211" stroke="#263238" stroke-linecap="round" stroke-linejoin="round"/>
<path d="M152.912 164.617C152.912 166.723 152.182 168.435 151.284 168.435C150.386 168.435 149.656 166.723 149.656 164.617C149.656 162.51 150.386 160.792 151.284 160.792C152.182 160.792 152.912 162.51 152.912 164.617Z" fill="white" stroke="#263238" stroke-linecap="round" stroke-linejoin="round"/>
<path d="M127.212 163.42H139.9C139.9 163.42 142.336 156.586 145.884 158.537C149.433 160.488 147.189 169.603 147.189 169.603H121.191" fill="white"/>
<path d="M127.212 163.42H139.9C139.9 163.42 142.336 156.586 145.884 158.537C149.433 160.488 147.189 169.603 147.189 169.603H121.191" stroke="#263238" stroke-linecap="round" stroke-linejoin="round"/>
<path d="M146.886 164.617C146.886 166.723 146.162 168.435 145.265 168.435C144.367 168.435 143.637 166.723 143.637 164.617C143.637 162.51 144.367 160.792 145.265 160.792C146.162 160.792 146.886 162.51 146.886 164.617Z" fill="white" stroke="#263238" stroke-linecap="round" stroke-linejoin="round"/>
<path d="M122.515 155.921C122.515 155.921 120.558 166.329 121.863 167.627C123.167 168.926 130.84 169.908 132.599 169.255C134.359 168.603 135.364 166.005 134.221 164.048C133.078 162.091 129.343 159.985 129.343 159.985L129.02 158.519" fill="white"/>
<path d="M122.515 155.921C122.515 155.921 120.558 166.329 121.863 167.627C123.167 168.926 130.84 169.908 132.599 169.255C134.359 168.603 135.364 166.005 134.221 164.048C133.078 162.091 129.343 159.985 129.343 159.985L129.02 158.519" stroke="#263238" stroke-linecap="round" stroke-linejoin="round"/>
<path d="M117.448 159.662H96.7891V169.423H117.448V159.662Z" fill="#A1A1A1" stroke="#263238" stroke-linecap="round" stroke-linejoin="round"/>
<path d="M96.9531 163.563H117.289" stroke="#263238" stroke-linecap="round" stroke-linejoin="round"/>
<path d="M191.297 166.329C191.297 166.329 192.44 153.48 194.714 153.163C196.988 152.845 203.985 151.864 205.612 153.492C207.24 155.12 209.353 166.018 209.353 166.018C209.353 166.018 206.899 167.957 200.914 168.118C194.93 168.28 191.297 166.329 191.297 166.329Z" fill="white" stroke="#263238" stroke-linecap="round" stroke-linejoin="round"/>
<path d="M209.353 166.005C209.353 166.005 208.857 163.45 208.156 160.619H191.998C191.519 163.612 191.273 166.311 191.273 166.311C191.273 166.311 194.864 168.262 200.849 168.106C206.834 167.95 209.353 166.005 209.353 166.005Z" fill="#263238" stroke="#263238" stroke-linecap="round" stroke-linejoin="round"/>
<path d="M212.605 163.241C212.605 163.241 209.35 166.652 202.03 166.652C194.711 166.652 193.574 167.466 188.864 163.726C184.154 159.985 184.794 161.122 185.77 163.726C186.745 166.329 189.678 168.932 196.668 169.585C203.658 170.237 212.282 167.628 215.376 164.198C218.471 160.769 217.669 159.662 212.605 163.241Z" fill="white" stroke="#263238" stroke-linecap="round" stroke-linejoin="round"/>
<path d="M97.3774 183.104H94.1875V262.899H97.3774V183.104Z" fill="#A1A1A1" stroke="#263238" stroke-linecap="round" stroke-linejoin="round"/>
<path d="M92.588 258.512H98.9737V263.096C98.9737 263.467 98.8262 263.824 98.5636 264.086C98.3009 264.349 97.9447 264.496 97.5733 264.496H93.9825C93.611 264.496 93.2548 264.349 92.9922 264.086C92.7296 263.824 92.582 263.467 92.582 263.096V258.512H92.588Z" fill="#263238" stroke="#263238" stroke-linecap="round" stroke-linejoin="round"/>
<path d="M220.163 183.104H216.973V262.899H220.163V183.104Z" fill="#A1A1A1" stroke="#263238" stroke-linecap="round" stroke-linejoin="round"/>
<path d="M215.381 258.512H221.767V263.096C221.767 263.467 221.619 263.824 221.357 264.086C221.094 264.349 220.738 264.496 220.366 264.496H216.775C216.404 264.496 216.048 264.349 215.785 264.086C215.523 263.824 215.375 263.467 215.375 263.096V258.512H215.381Z" fill="#263238" stroke="#263238" stroke-linecap="round" stroke-linejoin="round"/>
<path d="M222.825 169.327H92.3571C92.3571 169.327 90.3463 169.327 91.3517 172.589C92.3571 175.851 88.5927 195.93 88.09 201.19C87.5873 206.451 87.3359 211.227 87.3359 211.227C87.3359 211.227 89.5922 213.238 94.6134 212.986C99.6346 212.735 109.916 210.227 115.44 211.227C120.964 212.226 154.581 215.242 163.863 215.242C173.145 215.242 185.187 214.991 192.967 213.74C200.747 212.489 210.281 211.729 213.794 211.478C217.307 211.227 225.835 212.232 225.835 212.232C225.835 212.232 224.638 180.83 223.83 173.595C223.579 171.338 224.854 170.081 222.825 169.327Z" fill="#F1C40F" stroke="#263238" stroke-linecap="round" stroke-linejoin="round"/>
<path d="M97.4848 173.57L95.4141 191.004" stroke="#263238" stroke-linecap="round" stroke-linejoin="round"/>
<path d="M99.1484 175.438L99.5614 187.682" stroke="#263238" stroke-linecap="round" stroke-linejoin="round"/>
<path d="M99.7734 189.759L99.9829 193.912" stroke="#263238" stroke-linecap="round" stroke-linejoin="round"/>
<path d="M132.98 172.529V188.305" stroke="#263238" stroke-linecap="round" stroke-linejoin="round"/>
<path d="M134.414 202.836L134.438 206.367" stroke="#263238" stroke-linecap="round" stroke-linejoin="round"/>
<path d="M134.23 173.361L134.398 199.101" stroke="#263238" stroke-linecap="round" stroke-linejoin="round"/>
<path d="M219.953 172.325L220.163 187.682" stroke="#263238" stroke-linecap="round" stroke-linejoin="round"/>
<path d="M217.883 172.529L216.848 180.836" stroke="#263238" stroke-linecap="round" stroke-linejoin="round"/>
<path d="M222.445 178.346L222.858 183.325" stroke="#263238" stroke-linecap="round" stroke-linejoin="round"/>
<path d="M59.1455 98.5753C59.1455 98.5753 63.5802 100.544 65.8005 102.519C67.0435 103.586 68.1223 104.83 69.0024 106.212C69.0024 106.212 65.8005 107.199 64.813 108.181C63.989 109.1 63.2461 110.09 62.5927 111.137L57.4219 98.5693L59.1455 98.5753Z" fill="white" stroke="#263238" stroke-linecap="round" stroke-linejoin="round"/>
<path d="M63.4968 94.314C63.4968 94.314 60.5523 97.2644 59.8102 99.1796L59.0741 101.095L49.1992 95.0501L52.1437 87.6769L54.9506 79.2982C54.9506 79.2982 55.8303 76.4974 60.1094 77.3831C64.3885 78.2688 66.4473 79.5915 66.4473 82.8352C66.4473 86.0789 63.4968 94.314 63.4968 94.314Z" fill="white" stroke="#263238" stroke-linecap="round" stroke-linejoin="round"/>
<path d="M61.7524 96.2412C62.6501 95.164 63.4939 94.3141 63.4939 94.3141C63.4939 94.3141 64.2061 92.3212 64.9303 89.9094L61.6088 83.0688L58.754 82.2908L57.97 85.7978C57.9429 88.0215 58.3494 90.2292 59.167 92.2973C59.7896 93.754 60.6649 95.0892 61.7524 96.2412Z" fill="#263238" stroke="#263238" stroke-linecap="round" stroke-linejoin="round"/>
<path d="M43.1696 205.912C43.3843 208.636 43.3843 211.374 43.1696 214.099C42.8285 219.048 40.7757 223.824 40.7757 228.091C40.7757 232.358 41.7991 248.565 41.1169 252.15C40.4346 255.735 39.0701 258.29 39.7524 259.655C40.0379 260.152 40.4312 260.579 40.9035 260.904C41.3758 261.229 41.915 261.445 42.4814 261.534C43.1637 261.701 63.6375 261.534 63.6375 261.534C63.6375 261.534 64.1522 261.36 64.1522 260.169C64.1522 258.978 61.4231 257.608 59.8851 256.926C58.347 256.243 51.0097 254.879 50.1598 253.514C49.4486 252.395 49.0919 251.087 49.1364 249.762C49.1364 248.565 52.2066 230.138 53.23 226.553C54.2534 222.968 55.9591 205.738 55.9591 205.738L43.1696 205.912Z" fill="white" stroke="#263238" stroke-linecap="round" stroke-linejoin="round"/>
<path d="M48.3609 261.845L39.2461 261.001V263.054L50.1683 263.563V261.857L48.3609 261.845Z" fill="#263238" stroke="#263238" stroke-linecap="round" stroke-linejoin="round"/>
<path d="M45.8591 205.816C46.1032 208.856 46.1512 211.908 46.0027 214.954C45.7094 218.641 44.3808 220.562 44.8057 225.871C45.2307 231.179 48.1991 247.691 48.1991 251.078C48.1991 254.466 47.3133 261.103 48.3427 261.851C49.3721 262.599 69.5766 261.851 69.5766 261.851H73.1136C73.1136 261.851 73.9993 261.109 72.2279 259.487C70.4564 257.865 62.6523 256.1 59.8454 253.885C58.3655 252.778 57.0287 251.491 55.8656 250.055C55.8656 250.055 57.4874 229.108 57.4874 222.926C57.4874 216.744 58.2235 211.13 58.3732 208.329C58.5228 205.528 58.5168 204.792 58.5168 204.792L45.8591 205.816Z" fill="white" stroke="#263238" stroke-linecap="round" stroke-linejoin="round"/>
<path d="M36.2734 171.906C36.2734 171.906 37.3088 182.966 37.4704 186.796C37.632 190.626 38.0689 205.666 38.0689 205.666C38.0689 205.666 44.1135 208.473 50.6009 208.766C57.0884 209.059 65.7842 206.701 65.7842 206.701C65.7842 206.701 66.5264 185.031 66.5264 179.572V172.349C56.5684 174.775 46.1561 174.623 36.2734 171.906Z" fill="#263238" stroke="#263238" stroke-linecap="round" stroke-linejoin="round"/>
<path d="M34.5363 167.041L34.3867 172.643C40.5438 175.452 47.231 176.911 53.9987 176.922C65.2022 176.922 69.7745 173.678 69.7745 173.678L68.416 167.609C68.416 167.609 45.4166 170.003 34.5363 167.041Z" fill="white" stroke="#263238" stroke-linecap="round" stroke-linejoin="round"/>
<path d="M74.7812 119.216C74.7812 119.216 76.6605 114.392 76.6605 111.921C76.6605 109.449 77.7198 107.211 78.8988 106.391C80.0778 105.571 83.9619 104.386 83.9619 104.386L85.0212 115.099C85.0212 115.099 79.8384 119.45 78.8988 120.395C78.2932 121.013 77.7426 121.681 77.253 122.394L74.7812 119.216Z" fill="white" stroke="#263238" stroke-miterlimit="10"/>
<path d="M82.3125 99.6822L82.4322 114.393L97.4958 118.863L101.38 117.451L101.853 100.388L87.3756 99.3291L82.3125 99.6822Z" fill="#263238" stroke="#263238" stroke-linecap="round" stroke-linejoin="round"/>
<path d="M90.6484 100.718L90.7442 116.757L97.495 118.863L97.2137 101.376L90.6484 100.718Z" fill="white" stroke="#263238" stroke-linecap="round" stroke-linejoin="round"/>
<path d="M97.4958 118.863L101.38 117.451L101.853 100.388L87.3756 99.3291L82.3125 99.6822L96.9332 101.472L97.4958 118.863Z" fill="white" stroke="#263238" stroke-linecap="round" stroke-linejoin="round"/>
<path d="M97.2148 101.376L101.853 100.388" stroke="#263238" stroke-linecap="round" stroke-linejoin="round"/>
<path d="M95.8337 104.374C95.8337 104.77 95.7165 105.156 95.4969 105.485C95.2772 105.814 94.965 106.07 94.5998 106.221C94.2345 106.372 93.8326 106.412 93.4449 106.335C93.0571 106.258 92.701 106.067 92.4214 105.788C92.1418 105.508 91.9515 105.152 91.8743 104.764C91.7972 104.377 91.8368 103.975 91.9881 103.609C92.1394 103.244 92.3956 102.932 92.7243 102.712C93.053 102.493 93.4395 102.375 93.8348 102.375C94.365 102.375 94.8734 102.586 95.2483 102.961C95.6232 103.336 95.8337 103.844 95.8337 104.374Z" fill="white" stroke="#263238" stroke-linecap="round" stroke-linejoin="round"/>
<path d="M86.5476 112.98C88.3688 112.98 89.8452 110.504 89.8452 107.45C89.8452 104.396 88.3688 101.92 86.5476 101.92C84.7264 101.92 83.25 104.396 83.25 107.45C83.25 110.504 84.7264 112.98 86.5476 112.98Z" fill="white" stroke="#263238" stroke-linecap="round" stroke-linejoin="round"/>
<path d="M98.0845 100.035L85.3789 95.3254" stroke="#263238" stroke-linecap="round" stroke-linejoin="round"/>
<path d="M94.3966 107.379H93.3672V116.38H94.3966V107.379Z" fill="white" stroke="#263238" stroke-linecap="round" stroke-linejoin="round"/>
<path d="M76.5508 113.453C76.5508 113.453 76.9039 108.067 77.257 107.097C77.6101 106.128 82.0807 103.213 82.6433 102.507C83.2058 101.801 84.295 103.327 83.4692 104.506C82.6433 105.685 80.6443 107.917 80.6443 107.917C80.6443 107.917 81.9371 113.567 79.4474 115.332" fill="white"/>
<path d="M76.5508 113.453C76.5508 113.453 76.9039 108.067 77.257 107.097C77.6101 106.128 82.0807 103.213 82.6433 102.507C83.2058 101.801 84.295 103.327 83.4692 104.506C82.6433 105.685 80.6443 107.917 80.6443 107.917C80.6443 107.917 81.9371 113.567 79.4474 115.332" stroke="#263238" stroke-miterlimit="10"/>
<path d="M71.3711 121.568L75.2492 117.69L78.6665 121.688L75.4886 125.692L71.3711 121.568Z" fill="white" stroke="#263238" stroke-miterlimit="10"/>
<path d="M65.365 124.986C65.365 124.986 70.7513 120.395 71.7208 120.862C72.6903 121.329 77.2507 124.513 76.7779 126.045C76.3051 127.577 67.3639 136.399 65.9515 136.991C64.5391 137.584 65.365 124.986 65.365 124.986Z" fill="#F1C40F" stroke="#263238" stroke-miterlimit="10"/>
<path d="M47.7017 93.7932C47.7017 93.7932 41.2202 101.903 39.4487 110.598C37.6772 119.294 39.1554 132.425 38.563 136.255C37.9705 140.085 37.0907 154.538 36.205 156.747C35.3192 158.955 32.2251 163.384 33.1108 165.299C33.6924 166.524 34.4351 167.665 35.3192 168.692C35.3192 168.692 38.8562 170.757 48.8867 170.757C58.9171 170.757 63.9203 170.757 65.9851 169.722C68.0498 168.686 68.3431 169.871 69.2288 167.807C70.1146 165.742 70.5574 165.449 69.8273 162.355C69.0972 159.26 67.4513 155.717 67.4513 152.324C67.4513 148.931 67.4513 127.26 65.9731 118.564C64.4949 109.868 64.9437 106.595 63.4655 104.41C61.9873 102.226 56.0983 98.9521 52.9982 96.4445C49.8981 93.9368 47.7017 93.7932 47.7017 93.7932Z" fill="#F1C40F" stroke="#263238" stroke-linecap="round" stroke-linejoin="round"/>
<path d="M49.7695 91.6027C49.7695 91.6027 60.979 100.741 61.739 101.328C62.4991 101.914 63.5345 104.428 63.5345 104.428L57.1966 107.229C57.1966 107.229 49.8234 97.0548 48.3512 95.7262L46.8789 94.4036C46.8789 94.4036 47.8544 90.5494 49.7695 91.6027Z" fill="white" stroke="#263238" stroke-linecap="round" stroke-linejoin="round"/>
<path d="M59.7165 252.407C58.9275 255.69 58.5258 259.055 58.5195 262.431H74.4449C74.4449 262.431 76.0668 260.81 73.248 258.302C70.4292 255.794 59.7165 252.407 59.7165 252.407Z" fill="#263238" stroke="#263238" stroke-linecap="round" stroke-linejoin="round"/>
<path d="M74.4607 262.431V264.496H44.8242V261.989L74.4607 262.431Z" fill="#263238" stroke="#263238" stroke-linecap="round" stroke-linejoin="round"/>
<path d="M87.0234 121.808C87.0234 121.808 89.4951 120.276 89.6148 118.75C89.7345 117.224 89.6148 114.04 90.4347 112.765C91.2547 111.49 93.0261 109.587 93.4989 108.641C93.9717 107.696 94.6959 106.996 94.9113 108.408C95.1268 109.82 95.1447 110.407 94.3129 111.233C93.8046 111.739 93.3983 112.339 93.1159 112.998C93.1159 112.998 98.9989 109.587 100.172 108.641C101.345 107.696 102.53 107.349 102.53 108.528C102.53 109.707 101.584 109.94 100.645 110.88C99.528 111.894 98.3487 112.838 97.1137 113.704C96.7606 113.938 96.7606 114.53 98.0533 114.177C99.346 113.824 102.53 111.352 103.116 110.88C103.703 110.407 104.176 110.527 104.056 111.586C103.936 112.645 102.997 113.704 102.261 114.411C101.524 115.117 98.7296 117.469 98.7296 117.469C98.7296 117.469 98.969 118.528 99.7889 117.708C100.952 116.734 102.171 115.829 103.44 114.997C103.44 114.997 104.379 114.53 104.499 115.35C104.619 116.17 104.026 117.002 103.087 117.708C102.147 118.414 100.615 120.527 99.5555 121.473C98.4962 122.418 93.1997 123.591 92.7329 123.825C92.2661 124.058 89.6687 125.943 89.6687 125.943L87.0234 121.808Z" fill="white" stroke="#263238" stroke-miterlimit="10"/>
<path d="M83.4922 123.34L87.496 120.982L91.027 126.398L87.1429 129.337L83.4922 123.34Z" fill="white" stroke="#263238" stroke-miterlimit="10"/>
<path d="M48.4204 104.273C48.4204 104.273 43.7104 105.685 43.5967 112.155C43.483 118.624 46.6549 122.514 47.1277 122.981C47.6005 123.448 65.1299 143.329 66.7817 144.167C67.4478 144.57 68.1989 144.812 68.9751 144.873C69.7513 144.935 70.5311 144.814 71.2523 144.52C73.0477 143.922 86.9024 131.222 87.7283 130.396C88.5542 129.57 87.0221 127.338 85.8431 125.339C84.6641 123.34 82.0787 122.748 80.6663 123.454C79.2539 124.16 70.5461 129.439 70.5461 129.439C70.5461 129.439 61.2458 115.907 57.8345 111.43C54.4231 106.954 53.9504 105.901 51.4786 105.547" fill="#F1C40F"/>
<path d="M48.4204 104.273C48.4204 104.273 43.7104 105.685 43.5967 112.155C43.483 118.624 46.6549 122.514 47.1277 122.981C47.6005 123.448 65.1299 143.329 66.7817 144.167C67.4478 144.57 68.1989 144.812 68.9751 144.873C69.7513 144.935 70.5311 144.814 71.2523 144.52C73.0477 143.922 86.9024 131.222 87.7283 130.396C88.5542 129.57 87.0221 127.338 85.8431 125.339C84.6641 123.34 82.0787 122.748 80.6663 123.454C79.2539 124.16 70.5461 129.439 70.5461 129.439C70.5461 129.439 61.2458 115.907 57.8345 111.43C54.4231 106.954 53.9504 105.901 51.4786 105.547" stroke="#263238" stroke-miterlimit="10"/>
<path d="M48.7393 76.689C48.7393 76.689 48.5896 81.9974 46.6745 84.2118C44.7594 86.4262 43.2812 86.2765 43.2812 86.2765C43.2812 86.2765 42.8443 88.9278 44.7594 89.6639C46.6745 90.4 48.1468 88.7782 48.1468 88.7782C48.1468 88.7782 48.7452 89.221 48.0031 90.4C47.6313 91.0453 47.1202 91.5994 46.5069 92.0219C46.6597 92.4211 46.9563 92.7488 47.3383 92.9404C47.7204 93.132 48.1604 93.1736 48.5717 93.0573C50.0978 92.6144 51.8334 90.406 51.8334 90.406C51.8334 90.406 50.9476 91.603 53.0303 92.4707C55.113 93.3385 56.4237 92.77 56.4237 92.77C55.9379 91.1424 55.69 89.4532 55.6876 87.7548C55.6876 84.9539 56.286 80.974 58.1952 80.8244C60.1043 80.6748 64.533 81.7102 65.1195 79.7951C65.4583 78.7935 65.6596 77.7506 65.718 76.6949L48.7393 76.689Z" fill="#263238" stroke="#263238" stroke-linecap="round" stroke-linejoin="round"/>
<path d="M72.3307 81.2613C72.3307 81.2613 72.6239 84.3554 73.5276 85.0975C74.4313 85.8396 75.1495 85.9773 74.2637 86.4202C73.3606 86.7696 72.4211 87.0166 71.4629 87.1563C71.3261 88.9605 70.8232 90.7178 69.9846 92.3211C68.5124 95.4152 66.6152 97.6176 65.143 96.5883C63.6707 95.5589 60.4031 93.5001 58.9308 89.6639C57.4586 85.8277 58.1947 84.6547 58.1947 84.6547C58.1947 84.6547 55.8008 83.6193 55.8008 81.7042C55.8008 79.7891 57.3808 77.2096 59.0026 78.3886C59.4511 78.6714 59.8324 79.0488 60.1198 79.4943C60.4072 79.9399 60.5937 80.4429 60.6664 80.9681C60.6664 80.9681 64.0597 81.7042 64.353 79.6394C64.4949 78.8091 64.5948 77.9722 64.6522 77.1318L72.0195 77.5747L72.3307 81.2613Z" fill="white" stroke="#263238" stroke-linecap="round" stroke-linejoin="round"/>
<path d="M70.3102 82.3085C70.3102 82.9788 70.0349 83.5055 69.7118 83.5055C69.3886 83.5055 69.1133 82.9668 69.1133 82.3085C69.1133 81.6502 69.3886 81.1116 69.7118 81.1116C70.0349 81.1116 70.3102 81.6382 70.3102 82.3085Z" fill="#263238"/>
<path d="M69.5363 89.0055C68.8969 88.97 68.2763 88.7764 67.73 88.4422C67.1838 88.108 66.7289 87.6435 66.4062 87.0903" stroke="#263238" stroke-linecap="round" stroke-linejoin="round"/>
<path d="M48.7383 76.6889L72.7671 79.0349C72.7671 79.0349 73.2099 71.5181 72.0309 68.4239C70.8519 65.3298 66.2856 61.7868 61.2584 61.9365C56.2312 62.0861 50.791 64.1448 49.8874 67.0953C48.9837 70.0458 48.7383 76.6889 48.7383 76.6889Z" fill="white" stroke="#263238" stroke-linecap="round" stroke-linejoin="round"/>
<path d="M72.7619 79.035L81.9066 80.8304C79.8227 81.8299 77.5731 82.4385 75.2695 82.6259C71.8821 82.7695 67.1602 78.646 67.1602 78.646L72.7619 79.035Z" fill="white" stroke="#263238" stroke-linecap="round" stroke-linejoin="round"/>
<path d="M2.41406 264.496H288.503" stroke="#263238" stroke-linecap="round" stroke-linejoin="round"/>
</svg>
