<svg width="49" height="49" viewBox="0 0 49 49" fill="none" xmlns="http://www.w3.org/2000/svg">
<path fill-rule="evenodd" clip-rule="evenodd" d="M33.408 17.818C33.408 20.1809 32.4694 22.4469 30.7986 24.1177C29.1278 25.7885 26.8618 26.7271 24.4989 26.7271C22.1361 26.7271 19.87 25.7885 18.1993 24.1177C16.5285 22.4469 15.5898 20.1809 15.5898 17.818C15.5898 15.4552 16.5285 13.1891 18.1993 11.5183C19.87 9.84757 22.1361 8.90894 24.4989 8.90894C26.8618 8.90894 29.1278 9.84757 30.7986 11.5183C32.4694 13.1891 33.408 15.4552 33.408 17.818ZM28.9535 17.818C28.9535 18.9994 28.4842 20.1325 27.6488 20.9679C26.8134 21.8033 25.6804 22.2726 24.4989 22.2726C23.3175 22.2726 22.1845 21.8033 21.3491 20.9679C20.5137 20.1325 20.0444 18.9994 20.0444 17.818C20.0444 16.6366 20.5137 15.5036 21.3491 14.6682C22.1845 13.8328 23.3175 13.3635 24.4989 13.3635C25.6804 13.3635 26.8134 13.8328 27.6488 14.6682C28.4842 15.5036 28.9535 16.6366 28.9535 17.818Z" fill="#1B2E72"/>
<path fill-rule="evenodd" clip-rule="evenodd" d="M24.5 0C10.9693 0 0 10.9693 0 24.5C0 38.0307 10.9693 49 24.5 49C38.0307 49 49 38.0307 49 24.5C49 10.9693 38.0307 0 24.5 0ZM4.45455 24.5C4.45455 29.155 6.04259 33.4403 8.70418 36.8435C10.5734 34.3889 12.9848 32.3996 15.75 31.0311C18.5152 29.6625 21.5594 28.9519 24.6448 28.9545C27.6902 28.9517 30.6961 29.6439 33.4334 30.9787C36.1708 32.3134 38.5674 34.2553 40.4406 36.6565C42.3704 34.1254 43.6698 31.1712 44.2312 28.0382C44.7926 24.9053 44.5999 21.6837 43.669 18.64C42.7382 15.5963 41.0959 12.8181 38.8781 10.5351C36.6604 8.2521 33.9308 6.53005 30.9154 5.51141C27.9 4.49276 24.6853 4.20681 21.5374 4.67721C18.3895 5.14762 15.3989 6.36085 12.813 8.21653C10.2271 10.0722 8.12022 12.517 6.66674 15.3486C5.21326 18.1802 4.45495 21.3172 4.45455 24.5ZM24.5 44.5455C19.8983 44.5524 15.4356 42.9693 11.8669 40.0642C13.3033 38.0078 15.2153 36.3289 17.44 35.1702C19.6647 34.0115 22.1364 33.4073 24.6448 33.4091C27.1219 33.4071 29.5637 33.9961 31.7674 35.1273C33.9712 36.2584 35.8733 37.899 37.3157 39.9127C33.7193 42.9122 29.183 44.552 24.5 44.5455Z" fill="#1B2E72"/>
</svg>
