<svg width="201" height="55" viewBox="0 0 201 55" fill="none" xmlns="http://www.w3.org/2000/svg">
<path d="M169.316 54.3179V47.7893L173.121 46.6701V7.68508L169.316 6.56589V0H186.251C189 0 191.356 0.646641 193.32 1.93992C195.283 3.23321 196.789 5.08608 197.836 7.49855C198.899 9.91102 199.431 12.8085 199.431 16.1909C199.431 19.3744 198.907 22.2221 197.86 24.734C196.813 27.246 195.357 29.2232 193.492 30.6657C191.626 32.1082 189.475 32.8419 187.037 32.8668H180.287V46.6701L184.116 47.7893V54.3179H169.316ZM192.313 54.3179L186.3 30.8522L192.755 28.4273L197.958 46.7074L201.002 47.7893V54.3179H192.313ZM180.287 24.4729H186.129C188.19 24.4729 189.728 23.8138 190.743 22.4956C191.774 21.1526 192.289 19.2127 192.289 16.6759C192.289 14.1639 191.782 12.1618 190.767 10.6696C189.753 9.15246 188.247 8.3939 186.251 8.3939H180.287V24.4729Z" fill="#1B2E72"/>
<path d="M146.368 54.4371C143.155 54.4371 140.231 54.0008 137.596 53.1281C134.962 52.2554 132.367 50.7403 129.812 48.5829V35.7835H136.578L137.507 43.3104C138.405 44.2316 139.642 44.983 141.219 45.5648C142.796 46.1224 144.512 46.4012 146.368 46.4012C147.945 46.4012 149.272 46.1345 150.35 45.6012C151.448 45.0679 152.276 44.3164 152.835 43.3468C153.414 42.3529 153.703 41.1893 153.703 39.856C153.703 38.5955 153.444 37.4804 152.925 36.5107C152.426 35.5168 151.587 34.6199 150.41 33.8199C149.252 32.9957 147.675 32.2079 145.68 31.4564C142.227 30.2201 139.363 28.8747 137.087 27.4202C134.832 25.9415 133.136 24.184 131.998 22.1477C130.88 20.0872 130.321 17.6146 130.321 14.7299C130.321 11.8694 130.97 9.34833 132.267 7.16661C133.585 4.96065 135.401 3.2274 137.716 1.96685C140.031 0.706303 142.706 0.0517882 145.739 0.00330563C149.093 -0.045177 152.056 0.439649 154.631 1.45778C157.226 2.47592 159.461 3.89403 161.337 5.71213V17.6389H154.781L153.643 10.3665C152.885 9.78467 151.857 9.2756 150.559 8.83926C149.282 8.40292 147.825 8.18474 146.189 8.18474C144.791 8.18474 143.554 8.43928 142.476 8.94835C141.418 9.45741 140.58 10.1968 139.961 11.1664C139.343 12.1361 139.033 13.3118 139.033 14.6935C139.033 15.8814 139.303 16.9237 139.842 17.8207C140.381 18.6933 141.279 19.5297 142.536 20.3296C143.813 21.1054 145.57 21.9417 147.805 22.8386C152.615 24.4628 156.258 26.6081 158.733 29.2747C161.227 31.9412 162.475 35.4441 162.475 39.7833C162.475 42.7892 161.806 45.3951 160.469 47.6011C159.132 49.7828 157.256 51.4676 154.841 52.6554C152.426 53.8432 149.601 54.4371 146.368 54.4371Z" fill="#1B2E72"/>
<path d="M0 54.3179V47.7893L3.75477 46.6701V7.68508L0 6.56589V0H3.75477H14.2197L23.8367 37.8658H23.9821L33.2842 0H47.5281V6.56589L43.7491 7.68508V46.6701L47.5281 47.7893V54.3179H32.9209V47.7893L36.8694 46.6701V36.2616L36.9905 11.7515L36.8452 11.7142L26.3076 53.5717H20.954L10.1742 12.0499L10.0289 12.0872L10.4407 35.1425V46.6701L14.6073 47.7893V54.3179H0Z" fill="#1B2E72"/>
<path d="M95.5085 54.3179H86.3625C86.7435 51.5707 87.6581 44.5032 86.7435 38.2098C85.6003 30.3431 76.4543 30.3431 63.4974 19.8541C53.1318 11.4629 54.3513 2.62224 56.6378 0C57.7811 0.749212 58.3908 3.29653 60.8298 4.49527C63.8784 5.99369 67.3082 4.86988 75.311 8.24133C80.8208 10.5625 87.7598 15.9832 90.5544 19.1049C92.2058 16.8573 96.8804 12.4369 102.368 9.73975C110.371 5.80639 119.517 4.86988 121.422 4.49527C122.947 4.19559 124.09 1.37356 124.471 0C125.995 0.749212 129.044 10.8636 117.23 19.8541C107.845 26.9964 102.495 30.7177 97.0328 32.9653C96.5247 33.2151 95.2799 35.213 94.3652 41.2066C93.4506 47.2003 94.7463 52.4448 95.5085 54.3179Z" fill="#F1C40F"/>
</svg>
