<svg width="23" height="28" viewBox="0 0 23 28" fill="none" xmlns="http://www.w3.org/2000/svg">
<g clip-path="url(#clip0_141_1405)">
<path d="M4.92969 6.45969C4.92969 9.74577 7.80723 12.4194 11.3445 12.4194C14.8817 12.4196 17.7592 9.7462 17.7592 6.45969C17.7592 3.17362 14.8817 0.5 11.3445 0.5C7.80746 0.5 4.92969 3.1734 4.92969 6.45969ZM11.3445 2.59504C13.6382 2.59504 15.5042 4.32869 15.5042 6.45969C15.5042 8.5907 13.6382 10.3243 11.3445 10.3243C9.05072 10.3243 7.18471 8.5907 7.18471 6.45969C7.18448 4.32869 9.05072 2.59504 11.3445 2.59504Z" fill="#2C2C2C"/>
<path d="M11.4998 13.4233C8.41763 13.4233 5.52429 14.5385 3.35397 16.5635C1.1911 18.581 0 21.2602 0 24.1075V26.4526C0 27.0309 0.504866 27.5 1.12742 27.5H21.8726C22.4951 27.5 23 27.0309 23 26.4526V24.1075C23 21.244 21.7997 18.5559 19.6201 16.5395C17.4487 14.5301 14.5648 13.4233 11.4998 13.4233ZM20.7452 25.405H2.2545V24.1073C2.2545 19.3711 6.40193 15.5178 11.4998 15.5178C16.5977 15.5178 20.7452 19.371 20.7452 24.1073V25.405Z" fill="#2C2C2C"/>
</g>
<defs>
<clipPath id="clip0_141_1405">
<rect width="23" height="28" fill="white"/>
</clipPath>
</defs>
</svg>
