<svg width="20" height="26" viewBox="0 0 20 26" fill="none" xmlns="http://www.w3.org/2000/svg">
<g clip-path="url(#clip0_141_1408)">
<path d="M9.1078 3.95827C8.86035 3.72362 8.6885 3.4205 8.61423 3.08767C8.53996 2.75484 8.56664 2.40742 8.69087 2.08983C8.81509 1.77225 9.03121 1.49893 9.31159 1.30482C9.59197 1.11071 9.92387 1.00463 10.2649 1.00015C10.6059 0.995665 10.9404 1.09298 11.2258 1.27966C11.5112 1.46633 11.7344 1.73388 11.867 2.04809C11.9995 2.36231 12.0353 2.7089 11.9698 3.04357C11.9043 3.37824 11.7405 3.68577 11.4993 3.92684M14.2865 20.9999C14.2865 22.0608 13.865 23.0783 13.1149 23.8284C12.3647 24.5786 11.3473 25 10.2864 25C9.22551 25 8.20808 24.5786 7.45792 23.8284C6.70776 23.0783 6.28633 22.0608 6.28633 20.9999H14.2865ZM2.85771 18.2856C2.5546 18.2856 2.26391 18.406 2.04958 18.6204C1.83525 18.8347 1.71484 19.1254 1.71484 19.4285V19.8571C1.71484 20.1602 1.83525 20.4509 2.04958 20.6652C2.26391 20.8795 2.5546 20.9999 2.85771 20.9999H17.7151C18.0182 20.9999 18.3089 20.8795 18.5232 20.6652C18.7376 20.4509 18.858 20.1602 18.858 19.8571V19.4285C18.858 19.1254 18.7376 18.8347 18.5232 18.6204C18.3089 18.406 18.0182 18.2856 17.7151 18.2856C17.5635 18.2856 17.4182 18.2254 17.311 18.1182C17.2039 18.0111 17.1436 17.8657 17.1436 17.7142V10.7141C17.1436 8.89542 16.4212 7.15126 15.1352 5.86528C13.8492 4.57929 12.1051 3.85684 10.2864 3.85684C8.46773 3.85684 6.72357 4.57929 5.43759 5.86528C4.1516 7.15126 3.42915 8.89542 3.42915 10.7141V17.7142C3.42915 17.8657 3.36894 18.0111 3.26178 18.1182C3.15461 18.2254 3.00926 18.2856 2.85771 18.2856Z" stroke="black" stroke-width="2" stroke-linecap="round" stroke-linejoin="round"/>
</g>
<defs>
<clipPath id="clip0_141_1408">
<rect width="20" height="26" fill="white"/>
</clipPath>
</defs>
</svg>
